<svg id="Layer_1" data-name="Layer 1" xmlns="http://www.w3.org/2000/svg" viewBox="0 0 383.02 365.12"><defs><style>.cls-1{fill:#9eedfa;}.cls-2{fill:#84e0f9;}.cls-3{fill:#92e6fa;}.cls-4{fill:#87cef5;}.cls-5{fill:#6bccf0;}.cls-6{fill:#c2f2fd;}.cls-7{fill:#0d57c7;}</style></defs><path class="cls-1" d="M11.21,190.1q0-.94,0-1.89c0-.66,0-1.32,0-2v-1.9c1.18-3.06,2.37-6.12,3.72-9.61,7.42,0,14.64.22,21.84-.06,8.65-.33,17.29-1.09,25.93-1.66l8,0,37.86.07,6.13-.06,3.66,0a14,14,0,0,0-.06-1.83c14-2.1,18.14,8.62,23.29,18,2.72,1,5.43,2.75,8.15,2.76,46,.13,91.93,0,137.9,0,10.26,6.83,8.56,17.79,8.12,27.34-.87,19.26-3.17,38.46-5.19,57.66-1.7,16.06-3.27,32.18-6,48.09-1.95,11.45-8.87,19.45-21.12,21.51L258,344.74a8.47,8.47,0,0,0,.07-1.59l3.15-1.41c-3.32-2.13-6.56-2.43-9.8-2.43-62.63,0-125.27.12-187.91-.19-7.82,0-15.63-2.45-23.45-3.76q107,.09,214.05.1c2.62,0,5.25-1.33,7.87-2l-.14.07,3.94-2-.11.08,3.89-4.69c3-26.1,6.44-52.15,8.73-78.31,1.29-14.63.65-29.43.88-44.15l-7.56-1.06h-4c-2.35-.6-4.71-1.72-7.06-1.72q-59.74-.15-119.48,0c-2.38,0-4.76,1-7.13,1.58l-50.1-2.13c5.56-1.93,11-4.93,16.72-5.55,8.7-1,17.57-.25,26.69-.25-.68-9.29-4.34-13.61-13.92-13.19-13.86.61-27.78,0-41.67,0-17.6,0-35.19,0-51.83,0A137.37,137.37,0,0,0,21,196c.27,1.56,2.63,2.76,4,4.12-.15,3.81-.49,7.62-.4,11.42.49,22.87,1.09,45.73,1.65,68.6Q25,299.06,23.78,317.91c-.88-1.49-1.83-3.1-3.15-5.36-1.46,3.84-2.51,6.62-3.57,9.4l-1.77-46.09c.39-.49,1.14-1,1.13-1.46-.46-26.91-.94-53.82-1.66-80.72C14.73,192.45,12.44,191.29,11.21,190.1ZM21.85,298.29l-2-.09c-.11,2.44-.22,4.89-.34,7.33l2.35.1Z"/><path class="cls-1" d="M221.51,22.15c9.84,8.71,20.05,17.05,29.42,26.24,7.33,7.21,13.61,15.48,20.36,23.27-.54,2.06-1.54,4.12-1.55,6.18q-.14,44.31,0,88.62c0,2.07,1,4.13,1.53,6.2L267.75,190l-2,.1-5.66-7.76c.59-1.72,1.68-3.44,1.69-5.16q.12-43.44-.06-86.88c0-1.75-1-3.48-1.58-5.23a3.47,3.47,0,0,1-.16-1.63l-45.72-.7c-1.91-3.87-5.07-7.61-5.51-11.63-1.34-12.48-1.64-25.08-2.34-37.63-2.63-.68-5.26-1.95-7.89-2q-57.18-.21-114.37-.05c-2.66,0-5.32,1.2-8,1.84L72.52,42.8l-2.11.05c-.58,2.36-1.65,4.72-1.66,7.07q-.16,44.55,0,89.09c0,2.34,1.15,4.68,1.76,7q.85,3.78,1.73,7.57l0,4.09q-.81,3-1.63,6.09l-2,7.11-2,0C59.82,165,58.86,157.36,59,148.83c.4-17.88.12-35.77.12-54.5l-11,2.06-4.35,2,.14-.09-9.69,3.91.12-.13c-.67.68-1.35,1.36-2,2l.11-.15c-.65,3-1.83,5.91-1.87,8.87-.21,14.31-.11,28.62-.12,42.93h.09c-2-3-5.39-5.89-5.57-9-.68-11.63-.1-23.32-.46-35-.08-2.58-2.06-5.11-3.16-7.65-.81-7.84,3-12.52,10.06-15.29,3.85-1.51,7.43-3.69,11.28-5.17,16.54-6.35,16.4-6.3,16.64-24,.12-9.19.33-18.47,1.71-27.52.49-3.15,4.6-5.75,7.06-8.6l10.31.21,5.44,0H86l15,0,9.93,0c2.35.59,4.7,1.67,7,1.68q47.43.17,94.85,0c2.33,0,4.66-1.18,7-1.81Zm.6,49.55,27.32-2.49L222.11,37.13Z"/><path class="cls-2" d="M334,289.35c-1.48,2.73-2.88,4.86-3.86,7.17-5,11.87-5,11.78-18.15,8.54-4.61-1.13-9.61-.93-14-2.54-2.2-.81-5.26-4.79-4.81-6.51,5.72-21.68,11.56-43.36,18.56-64.65,1.39-4.25,7.29-8.5,12-9.92,11.84-3.58,23.27.39,34,5.55,2.82,1.36,5.34,4.59,6.66,7.57,2.46,5.54.46,13.11,9.3,15.74,1.46.44,1.92,10.77-.18,15.05-3,6.17-3.93,15.55-14.19,15.77-.72,0-1.5,1.61-2.1,2.57C348.86,297,348.87,297,334,289.35Zm2.51-37.72-6.06-1.93-14.12,16.88c-9.47,4.87-10.27,15.39-14.38,24.36,1.52,1,4,3.56,6.81,4,3.12.51,8.22.2,9.57-1.75,4.8-6.94,8.38-14.73,12.41-22.2l6.43-5.78,5.55-2.05a1.64,1.64,0,0,0,1.32.62l3.91,6.27c4.34-3.25,8.49-6.37,11.86-8.88-2.18-2.32-3.67-4.38-5.6-5.85C349,251.34,344.6,242.4,336.53,251.63Zm9.05-11.49c-5.76-9.66-12.11-10.53-18.09-3.22Z"/><path class="cls-3" d="M331,190c-.46,7-.45,14-1.62,20.83-.47,2.8-3.51,5.16-5.38,7.71-2.64-2.77-7.12-5.27-7.57-8.35-1.13-7.8-.48-15.85-.5-23.8,0-15.5-2.12-17.84-17.64-19.65-9.39-1.09-16-8.46-15.27-17.21.53-6.34,3.43-8.56,9.56-5.34,7.22,3.8,14.39,7.79,21.91,10.9,13.26,5.49,16,9,16.08,23.43,0,3.82,0,7.64,0,11.45Z"/><path class="cls-4" d="M15.29,275.86,17.06,322q1,3,1.94,6a13.3,13.3,0,0,0,.09,1.55L19,331.6l-.71.59c-1.61-6.67-4.38-13.29-4.62-20-1.22-34-1.74-68.05-2.62-102.08-.14-5.38-.88-10.74-1.34-16.11a13.87,13.87,0,0,0,1.7-.22c.62,2.36,1.7,4.7,1.78,7.08C14,225.85,14.59,250.86,15.29,275.86Z"/><path class="cls-5" d="M258,344.73l5.54,1.76c-36.92.19-73.85.48-110.77.54-33.11.05-66.23-.17-99.34-.26-.05-.61-.08-1.21-.09-1.82Z"/><path class="cls-5" d="M86,23.81h-2.2l-5.44,0-10.31-.21c2.06-.64,4.11-1.83,6.17-1.83q73.64.06,147.27.36l-1.7,1.54-108.89.12-9.92,0Z"/><path class="cls-4" d="M265.78,190.08l2-.1,19.91,1.91c-46,0-91.94.13-137.9,0-2.72,0-5.43-1.8-8.15-2.76,5.07.32,10.13.89,15.19.91Q211.3,190.15,265.78,190.08Z"/><path class="cls-2" d="M21.32,104.16c1.1,2.54,3.08,5.07,3.16,7.65.36,11.66-.22,23.35.46,35,.18,3.09,3.62,6,5.57,9-2.66,7-6,3.07-7.55-.18s-1.67-7.28-1.71-11C21.11,131.13,21.27,117.64,21.32,104.16Z"/><path class="cls-5" d="M66.7,170.91l2,0,49.61.26a14,14,0,0,1,.06,1.83l-3.66,0-6.13.06L70.73,173l-8,0c-7.82,0-15.65.14-23.47-.16-8.58-.34-17.15-1.12-25.72-1.7Z"/><path class="cls-6" d="M15.29,275.86c-.7-25-1.34-50-2.15-75-.08-2.38-1.16-4.72-1.78-7.08l-.21-2.35a4.93,4.93,0,0,1,.06-1.33c1.23,1.19,3.52,2.35,3.55,3.58.72,26.9,1.2,53.81,1.66,80.72C16.43,274.88,15.68,275.37,15.29,275.86Z"/><path class="cls-5" d="M271.29,172.66c-.53-2.07-1.52-4.13-1.53-6.2q-.17-44.31,0-88.62c0-2.06,1-4.12,1.55-6.18Z"/><path class="cls-6" d="M13.53,171.15c8.57.58,17.14,1.36,25.72,1.7,7.82.3,15.65.12,23.47.16-8.64.57-17.28,1.33-25.93,1.66-7.2.28-14.42.06-21.84.06-1.35,3.49-2.54,6.55-3.72,9.61C3.9,178.54,7.32,174.6,13.53,171.15Z"/><path class="cls-5" d="M30.42,155.77c0-14.31-.09-28.62.12-42.93,0-3,1.22-5.91,1.87-8.87,0,14.31.09,28.61-.12,42.91C32.25,149.85,31.07,152.81,30.42,155.77Z"/><path class="cls-4" d="M53.29,345c0,.61,0,1.21.09,1.82-10.45.57-21,1.52-29.26-7l.58-.57,25.13,5.68Z"/><path class="cls-5" d="M34.21,102.22l9.69-3.91Z"/><path class="cls-6" d="M11.23,186.24c0,.65,0,1.31,0,2l-2.45-1Z"/><path class="cls-5" d="M43.76,98.4l4.35-2Z"/><path class="cls-4" d="M20.45,335.83l-2.21-3.65.71-.58,1.92,3.81Z"/><path class="cls-4" d="M22.21,337.9l-1.76-2.08.42-.41,1.9,1.92Z"/><path class="cls-1" d="M11.15,191.43l.21,2.35a13.87,13.87,0,0,1-1.7.22C10.16,193.14,10.66,192.29,11.15,191.43Z"/><path class="cls-5" d="M32.3,104.12c.68-.67,1.36-1.35,2-2C33.66,102.77,33,103.45,32.3,104.12Z"/><path class="cls-4" d="M24.12,339.78l-1.91-1.89.56-.56,1.93,1.88Z"/><path class="cls-5" d="M59.17,200.07,25,200.16c-1.4-1.36-3.76-2.56-4-4.12a137.37,137.37,0,0,1-1.2-13.94c16.64,0,34.23,0,51.83,0,13.89,0,27.81.64,41.67,0,9.58-.42,13.24,3.9,13.92,13.19-9.12,0-18-.7-26.69.25-5.71.62-11.16,3.62-16.72,5.55l-13,0c-1.41-3.46-2.35-7.24-4.42-10.25-1.07-1.55-4.12-1.75-6.28-2.56-.73,2.08-1.86,4.13-2.06,6.26C57.82,196.34,58.73,198.23,59.17,200.07Z"/><path class="cls-2" d="M26.27,280.18l4.2,45.24,5.79,6.11-.1-.06L40,335.36c7.82,1.31,15.63,3.73,23.45,3.76,62.64.31,125.28.17,187.91.19,3.24,0,6.48.3,9.8,2.43L258,343.15q-98.64,0-197.3.11c-3.63,0-7.26,1.06-10.89,1.63L24.7,339.21l-1.93-1.88-1.9-1.92L19,331.6c0-.71.09-1.41.14-2.11l.68-.43L19,327.94q-1-3-1.94-6c1.06-2.78,2.11-5.56,3.57-9.4,1.32,2.26,2.27,3.87,3.15,5.36Q25,299.09,26.27,280.18Z"/><path class="cls-5" d="M40,335.36l-3.85-3.89c14.88.71,29.75,2,44.62,2,60.39.18,120.77,0,181.15-.06-2.62.71-5.25,2-7.87,2Q147,335.54,40,335.36Z"/><path class="cls-6" d="M49.83,344.89c3.63-.57,7.26-1.62,10.89-1.63q98.66-.17,197.3-.11a8.47,8.47,0,0,1-.07,1.59L53.29,345Z"/><path class="cls-5" d="M267.57,203.39l-133.67-.13c2.37-.55,4.75-1.57,7.13-1.58q59.73-.15,119.48,0C262.86,201.67,265.22,202.79,267.57,203.39Z"/><path class="cls-6" d="M70.73,173l37.86.07Z"/><path class="cls-2" d="M21.85,298.29v7.34l-2.35-.1c.12-2.44.23-4.89.34-7.33Z"/><path class="cls-5" d="M279.12,204.44l-7.56-1.06Z"/><path class="cls-5" d="M265.62,331.59l3.89-4.68Z"/><path class="cls-6" d="M114.72,173l3.66,0Z"/><path class="cls-5" d="M261.79,333.49l3.94-2Z"/><path class="cls-5" d="M206.44,33.46,76.2,33.29c2.66-.64,5.32-1.83,8-1.84q57.18-.16,114.37.05C201.18,31.51,203.81,32.78,206.44,33.46Z"/><path class="cls-2" d="M72.52,42.8q-.12,55.4-.26,110.79-.87-3.79-1.73-7.57L70.41,42.85Z"/><path class="cls-6" d="M110.92,23.81l108.89-.12c-2.33.63-4.66,1.8-7,1.81q-47.43.16-94.85,0C115.62,25.48,113.27,24.4,110.92,23.81Z"/><path class="cls-6" d="M70.41,42.85,70.53,146c-.61-2.33-1.75-4.67-1.76-7q-.18-44.53,0-89.09C68.76,47.57,69.83,45.21,70.41,42.85Z"/><path class="cls-5" d="M260.12,182.32q0-48.63.05-97.27c.55,1.75,1.57,3.48,1.58,5.23q.18,43.44.06,86.88C261.8,178.88,260.71,180.6,260.12,182.32Z"/><path class="cls-5" d="M260,83.42l-45.72-.7Z"/><path class="cls-6" d="M86,23.81l15,0Z"/><path class="cls-2" d="M72.29,157.68c-.54,2-1.08,4-1.63,6.09Q71.48,160.73,72.29,157.68Z"/><path class="cls-6" d="M78.38,23.83l5.44,0Z"/><path class="cls-5" d="M330.76,271c-4,7.46-7.61,15.25-12.41,22.19-1.35,2-6.45,2.26-9.57,1.75-2.82-.46-5.29-3.06-6.81-4,4.11-9,4.91-19.49,14.38-24.36l14.45-1.86-.07-.08Z"/><path class="cls-5" d="M345.58,240.14l-18.09-3.22C333.47,229.61,339.82,230.48,345.58,240.14Z"/><path class="cls-7" d="M342.74,263.18a1,1,0,0,1,1.33.62A1.65,1.65,0,0,1,342.74,263.18Z"/><path class="cls-1" d="M19,327.94l.77,1.12-.68.43A13.3,13.3,0,0,1,19,327.94Z"/><path class="cls-3" d="M221.46,283.9c-15.76,5.52-30.81,13.21-46.69,15.86-33.79,5.62-65.1-2.43-92.14-24.24-2.11-1.7-2.77-5.2-4.1-7.87,2.79-1,5.81-3.23,8.32-2.75a41,41,0,0,1,13,5.21c29.72,17.61,60.93,21.37,93.4,9.4,9.62-3.54,18.36-9.48,27.19-15.41-11.86-1.36-24.77,6-36.22-8.52,10.37-2.21,19.27-4.19,28.21-6,7.12-1.43,14.28-2.62,21.42-4,8.93-1.65,11.71,1.57,9.55,10.28-2.75,11.07-4.58,22.38-7.66,33.35-1.13,4-4.7,7.36-7.16,11-2.19-4.41-4.46-8.79-6.51-13.27A9,9,0,0,1,221.46,283.9Z"/><path class="cls-1" d="M59.17,200.07c-.44-1.84-1.35-3.73-1.18-5.52.2-2.13,1.33-4.18,2.06-6.26,2.16.81,5.21,1,6.28,2.56,2.07,3,3,6.79,4.42,10.25Z"/><path class="cls-5" d="M36.26,331.53l-5.79-6.11Z"/><path class="cls-1" d="M241.6,130.73c4.88,6.52,4,8.35-4.7,9.5-2.69-.56-5.38-1.6-8.07-1.61q-62.47-.17-125,0c-2.72,0-5.43.94-8.14,1.44-5.17-2.73-7.39-5.69-.69-9.3Z"/><path class="cls-1" d="M95.81,109.34c-6.51-3.51-6.22-7.15-.22-10.92,3.31.58,6.62,1.64,9.94,1.65q67.72.18,135.45.1c.51.73,1,1.46,1.54,2.18-.56,1.85-1.11,3.71-1.66,5.56l-2.27,1.47c-2.39-.5-4.78-1.43-7.18-1.43q-64.2-.12-128.39,0C100.61,108,98.21,108.86,95.81,109.34Z"/><path class="cls-1" d="M93.76,82.71c-5.56-2.75-5.28-5.9-.63-9.34,30.2,0,60.39,0,90.58-.14,3,0,6-1,9.06-1.49,5.29,4.72,4.48,8.32-2,10.89-1.75-.51-3.5-1.46-5.25-1.46q-42.79-.15-85.6,0C97.88,81.16,95.82,82.17,93.76,82.71Z"/><path class="cls-1" d="M99.2,58.14l-8.43-2.43c.81-1.79,1.63-3.57,2.45-5.36l98.25,0c-.06,2-.12,3.91-.17,5.87-27.39,0-54.78,0-82.17.17C105.82,56.39,102.51,57.52,99.2,58.14Z"/><path class="cls-1" d="M178.06,171.16c-3.49,0-7.13.63-10.41-.2-2.52-.64-4.57-3.11-6.83-4.77,2.08-2.14,4-5.92,6.27-6.12a113.51,113.51,0,0,1,22.72.32c2.36.26,4.36,3.71,6.53,5.7-2.6,1.68-5,4.1-7.86,4.84-3.27.84-6.93.19-10.42.19Z"/><path class="cls-3" d="M191.47,50.33l-98.25,0c3.47-1.19,6.93-3.38,10.41-3.41q40-.4,80,.06C186.23,47,188.84,49.17,191.47,50.33Z"/><path class="cls-1" d="M216.22,172.29c-2.52,0-5.65.93-7.41-.22a14.17,14.17,0,0,1-5.6-7.46c-.28-1.05,3.89-4.54,6.28-4.83a36,36,0,0,1,13.95,1c2.71.79,4.7,4.08,7,6.24-2.85,1.87-5.56,4-8.62,5.46-1.55.73-3.72.13-5.61.13Z"/><path class="cls-5" d="M241.6,130.73H95c3-.64,6-1.83,8.95-1.84q64.31-.15,128.6.06C235.6,129,238.6,130.11,241.6,130.73Z"/><path class="cls-5" d="M241,100.17q-67.72,0-135.45-.1c-3.32,0-6.63-1.07-9.94-1.65q68.72-.11,137.44-.13C235.68,98.29,238.33,99.51,241,100.17Z"/><path class="cls-5" d="M95.81,109.34c2.4-.48,4.8-1.37,7.21-1.37q64.18-.15,128.39,0c2.4,0,4.79.93,7.18,1.43Z"/><path class="cls-5" d="M95.73,140c2.71-.5,5.42-1.44,8.14-1.44q62.48-.14,125,0c2.69,0,5.38,1,8.07,1.61Z"/><path class="cls-5" d="M192.77,71.74c-3,.52-6,1.48-9.06,1.49-30.19.14-60.38.12-90.58.14,2.36-.65,4.72-1.86,7.08-1.86C131.06,71.49,161.92,71.64,192.77,71.74Z"/><path class="cls-5" d="M93.76,82.71c2.06-.54,4.12-1.55,6.18-1.56q42.81-.14,85.6,0c1.75,0,3.5,1,5.25,1.46Z"/><path class="cls-5" d="M99.2,58.14c3.31-.62,6.62-1.75,9.93-1.77,27.39-.17,54.78-.14,82.17-.17-2.6.68-5.19,1.94-7.79,1.95C155.41,58.26,127.31,58.17,99.2,58.14Z"/><path class="cls-5" d="M240.86,107.91c.55-1.85,1.1-3.71,1.66-5.56Q241.68,105.14,240.86,107.91Z"/><path class="cls-5" d="M330.8,264.72l.47-.67-.54.59Z"/></svg>