<svg id="Layer_1" data-name="Layer 1" xmlns="http://www.w3.org/2000/svg" viewBox="0 0 404.6 385.69"><defs><style>.cls-1{fill:#fbb279;}</style></defs><path class="cls-1" d="M229.07,45c1-6.72,1.44-13,3-19,3.23-12.6,12.91-20.21,26-20.26,37.15-.14,74.31-.23,111.46.17,19.1.21,28.55,10.43,28.75,29.76.13,12.61,0,25.23-.09,37.84C398,88.87,391,96.06,376,96.36c-6.61.13-13.29-.57-19.81.21-3.74.45-7.66,2.55-10.69,4.94-3.21,2.54-4.85,7.36-8.26,9.34-18,10.47-21.84,26.43-19.23,45.51.71,5.16-.61,10.62.3,15.71.71,3.94,2.59,8.43,5.44,11.07,7.61,7.05,9.21,19.78,2.5,27.26-7.09,7.9-20.06,8.47-27.25,1.19-8.39-8.49-7.82-19.66.47-27.9,3-3,5.66-7.8,5.94-11.95.79-12.21,2.79-25.19-.36-36.58s-4-21.88-1.95-33.24c.25-1.34-4.94-5.19-7.73-5.32a370.26,370.26,0,0,0-37.84-.12c-23.88,1.35-26-10.53-27.07-29.13-.16-2.67.5-5.4.85-8.82H217.39c0,22.17-.33,44.15.44,66.08.09,2.58,5.85,5.77,9.55,7.28,22.1,9,41.43,21.16,48.71,45.55,8.85,29.59-4.43,62.47-31.74,80.29-5.26,3.43-10.62,7.78-16.49,8.94-10.36,2.06-11.15,8.21-10.89,16.7.44,14,0,28,.08,42.05.14,15.26,3.45,18.64,18.35,18.94,10.86.22,21.76-.17,32.58.56,3.14.21,6.09,3.35,9.13,5.15-3,2.3-5.86,6.45-8.93,6.59a354.41,354.41,0,0,1-41-.16c-14.51-1-22.14-9.41-22.37-24.14-.36-22.77-.22-45.55.2-68.32.08-3.79,2.7-7.52,4.14-11.29,1-2.73,2.07-5.47,3.11-8.2-2.72-.7-5.42-1.82-8.17-2-3.05-.21-6.16.44-10.33.82,0,14.4,0,28.3,0,42.2,0,13-.21,25.94.39,38.88.38,8.35-2.69,12.59-11.06,12.91-2.8.11-5.64.77-8.39.49-7.76-.77-11.63,1.55-13.56,10.12-4.5,20-16,28.91-38.77,29.67-25.21.84-50.51,1-75.7-.14C22.12,376.42,8.8,357.69,20.36,339c8.23-13.33,15.7-27.8,25.73-39.4,8.13-9.42,22.57-13.4,37-21.32,0-17.78.09-39.44-.16-61.09,0-1.9-1.89-4.26-3.56-5.56-11.81-9.18-11.71-21.34.23-30.8,1.65-1.3,2.51-3.73,3.42-5.77.37-.85-.16-2.07-.16-3.11,0-17.11,0-34.21,0-52.8H35.11c-17.35,0-25.67-8-26-25.55C8.81,78.49,8.86,63.42,9,48.36c.14-13.41,4.85-18.25,18.23-19a79.76,79.76,0,0,1,13.65.05C52,30.6,60.28,27.88,68.59,19.1c14.23-15,45.91-10.58,58.68,6.15,1.55,2,5.18,3.27,7.93,3.44,8.39.51,16.82.5,25.23.35,8.73-.17,12.88,3.56,12.78,12.56-.23,20.67,0,41.35-.17,62-.13,11.45-3.55,14.9-15.25,15.15-16.47.36-32.95.18-49.42.22h-13c0,19.87-.08,39,.15,58.07,0,1.61,1.84,4.23,3.3,4.62,10.45,2.81,10.2,11.29,8.62,18.6-1.08,5-6,9.24-9.22,13.81l-3-1.49c0,22.39-.11,44.79.15,67.19a10.13,10.13,0,0,0,3.45,6.73A221.22,221.22,0,0,0,117.16,300a10,10,0,0,0,6.5,1.12c20.41-3.1,27.68.28,36.4,19.53,4.51,9.95,11,1.14,16.28,2.6,1,.28,5-4.92,5.11-7.7.48-11.19-.26-22.42,0-33.62.15-7.26-2.15-11.55-9.64-13.88-17.56-5.46-31.37-16.12-41.88-31.48-24.34-35.59-9.2-76.47,24-95.13A115,115,0,0,1,174.81,132c6.66-2.13,8.73-6,8.66-12.4-.16-14.72-.42-29.45.1-44.15.12-3.5,3.14-6.91,4.83-10.36,2.08,3.09,5.91,6.15,5.95,9.27.25,20.21.06,40.46-1,60.65-.17,3.1-5.32,6.39-8.76,8.72-2.56,1.73-6.08,2.05-9.17,3l.24,2.78a73.61,73.61,0,0,1,8.54,1.66,66.42,66.42,0,0,1,7.64,3.4c-1.47,2.6-2.4,6.82-4.5,7.52-16,5.31-11.83,18-11.85,30.18h44.15c4.8-14.86,2.81-20.48-9.79-29.66-2.23-1.63-3.33-4.81-5-7.27,2.81-1.57,5.52-4.21,8.45-4.5,9.35-.92,18.38,7.55,18.63,17,.22,8,0,16,0,24.66h33.2c0-12.08-3.8-23.21-13.06-30.23a142.4,142.4,0,0,0-34.4-19.13c-8.69-3.36-12.75-8-12.84-16.51-.23-21-.34-42-.2-63.07.08-14,3.29-17,17.26-17.73C224.34,45.69,226.69,45.3,229.07,45Zm88,64c2.38-1,3.62-1.2,4.2-1.9,14.12-16.91,31.07-26,54.08-22.37,7,1.12,10.8-4.38,10.32-12.41-.62-10.46-.07-21-.12-31.49-.09-18.54-3.55-22.13-21.84-22.21q-50.94-.21-101.89-.19c-13.21,0-18.64,5.06-19,18.16-.31,10.84,0,21.7,0,32.55,0,12.58,3.31,16,16.14,16.14,13.65.15,27.31,0,41,0,17.26,0,17.24.06,16.5,17.68A45.58,45.58,0,0,0,317,109ZM138.24,86.92c-6.78,6-11.5,6.48-17.26.58-13.12-13.42-29.52-16-46.4-8-5.63,2.7-10.56,7-16.34,9.17-3.79,1.41-8.53.25-12.84.25,2.19-3.32,3.67-7.71,6.72-9.74,6.65-4.43,14.18-7.54,21.21-11.44,6.09-3.39,7.9-9.8,3.15-13.86-7.22-6.19-13.64-15.24-25.92-12.6-6,1.3-12.58.58-18.86.26-7-.36-10.44,2.15-10.3,9.56.27,14,.15,28,.15,42,0,9.12,4.38,13.3,13.61,13.21,18.21-.18,36.42.08,54.63.07,19.6,0,39.22.21,58.8-.42,4-.13,11.33-3.42,11.42-5.51.89-19.4.53-38.85.53-59.43-7.4,0-13.36.6-19.16-.14-8.28-1.07-15.37-1.66-19.28,8.23-1,2.55-6.2,4.17-9.74,4.83-4.75.88-9.86-.1-14.62.76-2.41.43-4.41,3.16-6.59,4.85,2.12,1.6,4.18,4.51,6.36,4.59C114.73,64.87,126.08,75.38,138.24,86.92ZM82.12,365l0,.84c15-.8,30-.92,44.9-2.56,20.65-2.28,29.79-26.07,16.94-42.8-4.33-5.63-9.18-8.37-17.13-6.84-5.5,1.05-14.27.56-17.16-2.92-13.6-16.32-28.79-16.93-46.89-9.22-8.59,3.66-12.46,9.06-14.05,17.91-1,5.63-3,13.71-7,15.62C33,339.26,28.66,344.83,30.6,353.7s9.77,11.15,18,11.27C59.74,365.13,70.93,365,82.12,365Zm49.21-159.32c2.4,26.24,30.31,53,49.49,48.58v-9.76c-16.64-5.06-16.93-5.49-16.51-22.7.06-2.79.92-6.06-.22-8.28-1.56-3-4.45-7.16-7.17-7.48C148.7,205.06,140.29,205.69,131.33,205.69Zm89,49.69c21.27-5.31,44.34-31.2,43.86-49.29H233.24c-1.14,9.19-1.19,18-3.55,26.21C227.47,240,215.65,243.8,220.32,255.38Zm-45.08-49.16c0,6.05-.64,11.06.26,15.77.48,2.56,3.3,6.18,5.58,6.61a106.88,106.88,0,0,0,20.85,1.66c16.13-.14,20.93-6.53,18.17-24ZM130.7,192.48c10.73,0,21.16,2.06,29.75-1,3.49-1.24,2.93-13.67,4.32-21,.32-1.7,1.63-3.37,1.48-5-.31-3.18-.34-7.63-2.31-9.09s-7.11-1.55-9.49-.06C141.38,164.53,134,176.69,130.7,192.48ZM95.25,45.24c.19-.61.39-1.22.58-1.83,3.15,0,6.72.94,9.36-.22,3.9-1.71,9.71-4.63,10-7.54.38-3.58-3.26-10-6.55-11.11C97,20.57,85,21.24,75.12,29.73c-1.51,1.3-1.18,8.05,0,8.59C81.54,41.26,88.48,43.05,95.25,45.24ZM320.4,198.49c-4.47-3.08-7.18-6.09-10.35-6.67-1.68-.31-6.25,4.45-5.85,5.42,1.25,3.07,3.85,6.76,6.69,7.59C312.82,205.4,316,201.57,320.4,198.49Zm-234,7.22,10.88-8.47c-2.46-2-4.69-5.16-7.45-5.74-1.73-.36-5.67,2.82-6.09,4.91C83.22,199.05,85.27,202.21,86.4,205.71Z"/><path class="cls-1" d="M323.2,258.16c-28.67-.61-51.78,8.16-69,30.65-2.38,3.1-9.54,6.64-11.17,5.45-5.83-4.27-2.6-9.63,1.15-14.3,20.05-25,47-35.52,78.16-35.69,28.39-.16,52.08,10.84,71.61,31.65,6.59,7,7.29,12.85,1.33,20-2,2.41-3.64,5.15-5.75,7.47-10.24,11.3-9.81,10.71-21.59,1-26.84-22.08-58.83-26.49-90.31-2.7a45.4,45.4,0,0,1-13.84,6.74c-2,.61-6-1.05-6.95-2.83-.83-1.52.59-5.53,2.28-7,32.16-28.12,74.52-38.47,112.44-8.26,2.69,2.13,9.31,3.29,11.3,1.6,5.71-4.85-.82-7.23-3.71-10.21C363.52,265.57,345,256.59,323.2,258.16Z"/><path class="cls-1" d="M322.47,333.65c12.41,0,21.06,7.66,20.78,18.31-.3,11.6-10.17,23.58-19.49,23.65-14.38.11-24.64-8.93-24.35-21.47C299.68,342.52,309.7,333.61,322.47,333.65Zm-2,33.23c4.11-5.75,7.93-8.82,8.15-12.13.18-2.59-4.09-5.49-6.38-8.26-3.29,2.89-7.68,5.26-9.36,8.89C312.06,357.06,316.52,361.19,320.44,366.88Z"/><path class="cls-1" d="M322.87,304.29c13.06-1.29,24.49,2.47,33.69,11.43,2.62,2.55,5.47,8.5,4.25,10.67-3.38,6-8.78,3.77-13.21,0-11.74-9.92-25.11-11.67-39.25-7.11a42.77,42.77,0,0,0-14.28,8.21c-4.71,4-9,6-13.48.9-5.41-6.11.26-9.66,4.25-12.58C296.14,307.57,308.68,302.75,322.87,304.29Z"/><path class="cls-1" d="M319.84,41.16q-24.1,0-48.2,0c-5.19,0-11.79,1.07-11.48-6.42.09-2.09,7-5.51,10.84-5.57,32.12-.52,64.25-.4,96.38-.44,2.43,0,5.37-.44,7.17.72,2.64,1.71,4.47,4.69,6.64,7.12-2.64,1.55-5.25,4.39-7.92,4.45-17.81.4-35.62.21-53.43.21Z"/><path class="cls-1" d="M326.24,53.86c5.58,0,11.26-.59,16.71.26,2.55.4,4.67,3.56,7,5.47-2.19,2.14-4.35,6.09-6.57,6.12A337.55,337.55,0,0,1,308,64.31c-2.1-.19-3.86-4.13-5.78-6.34,2.44-1.33,4.78-3.54,7.33-3.81,5.52-.59,11.15-.18,16.73-.18Z"/><path class="cls-1" d="M262.25,66.52c-1.37-11.86,4-13.36,10.6-12.06,2.12.42,3.62,3.94,5.41,6Z"/></svg>