<svg id="Layer_1" data-name="Layer 1" xmlns="http://www.w3.org/2000/svg" viewBox="0 0 426.18 406.26"><defs><style>.cls-1{fill:#fcd73d;}.cls-2{fill:#fcde49;}</style></defs><path class="cls-1" d="M58.61,268.16c-22-22.45-24.3-50.06-6.2-69.42,15.74-16.82,49.24-18.64,66.57-3.61,18.58,16.13,18.22,44.53-1.45,70.79,5,1.73,10.18,2.65,14.3,5.26,2.7,1.71,3.85,5.86,5.7,8.92-3.38,1.35-7.46,4.66-10,3.74-18.61-6.64-37.41-5.83-56.4-3-26.46,3.89-44.19,23.2-45.64,49.78-.53,9.69-1.16,19.4-1,29.08,0,2.57,2.64,7.07,4.44,7.27,7.46.83,15.07.35,23.44.35,0-5.78,0-11.5,0-17.21,0-5.32,1.34-10.59,7.86-9.06,2.43.57,4.83,5.6,5.37,8.91.89,5.36.24,11,.24,18.35,11.88,0,23.16,0,34.43,0,3.45,0,7.25-.47,10.24.81,2.24,1,4.64,4.35,4.69,6.71,0,1.65-3.75,4.82-5.87,4.86-30.17.46-60.34.74-90.51.28-2.8,0-7.88-5.39-7.9-8.3-.1-19-.53-38.17,1.92-56.93,3-22.68,18.71-36.22,38.92-45C53.93,269.82,56.19,269.07,58.61,268.16ZM87,201.67c-19.61.1-31.74,11.68-31.81,30.37-.07,16.79,14.13,30.91,31,30.8,18.58-.13,31.61-13.58,31.46-32.46C117.46,212.12,106.2,201.57,87,201.67Z"/><path class="cls-2" d="M136.5,380.71c-6.14.94-8.36-2.6-8.18-7.85.6-18-.6-36.37,2.71-53.88,5.15-27.27,23.39-43.92,50.44-50.58,3.3-.81,6.66-1.36,10.31-2.1-29.7-21.06-37.77-54.24-19-76.71A53.53,53.53,0,0,1,252,186.34c22,22.24,16.76,54.14-13.55,80,3.52,1.18,6.69,2.39,9.94,3.31,31.11,8.85,47.2,30.2,50,61.62,1.22,13.76.32,27.72,0,41.58-.05,2.08-2,4.13-3,6.19q-76.13-.12-152.24-.16C141,378.87,138.72,380.07,136.5,380.71ZM142.84,327c1-8.7,2-17.41,3.13-27-7.1,1-8.45,9.18-9.16,14.46-2.4,18-3.21,36.26-4.47,54.42-.47,6.68,3.82,7.88,9.41,7.87q72.18-.12,144.36.05c5.95,0,8.93-1.36,8.7-8.06-.42-11.75.39-23.56-.34-35.28-.39-6.26-2.91-12.39-4.46-18.57l-2.27.68q-1.82,5.63-3.62,11.25c-12.79-34.6-35.19-48.54-77-47.9C174.58,279.43,153.66,295.06,142.84,327ZM249.43,220.92c.09-21.22-13-33.65-35.67-33.81-19.35-.14-35.32,14.73-35.4,33-.09,20.45,15.36,35.73,36.2,35.82C233.65,256,249.35,240.23,249.43,220.92Z"/><path class="cls-2" d="M223.84,158.54c-1.9-2.62-5.38-5.21-5.44-7.87-.5-22.76-2.63-45.82.11-68.24,3.76-30.73,27.21-45,54.35-53.37,11.18-3.45,23-4.92,34.47-7.29,6.61-1.36,9.8,1.68,10.4,8.07,5.33,57.21-31,92.71-79.55,99-6,.78-8.6,2.34-8.85,8.53-.27,6.51-1.59,13-2.46,19.46ZM303.5,40c-49.25,2.83-72.77,26.11-73.59,58.45,15-14.79,29.11-28.86,43.48-42.63,3.09-3,7.21-4.83,10.85-7.2L287,51c-1.62,4.29-2.32,9.32-5,12.73-7.29,9.12-15.19,17.8-23.35,26.17-7.46,7.65-15.58,14.68-25.18,23.63C272.66,114.45,308.87,74.73,303.5,40Z"/><path class="cls-2" d="M200.83,157.19c2.54-21.13-6.52-27.69-25.82-32.35C124.48,112.63,111.54,78,112.14,32c0-3.11,4.84-8.84,7.39-8.82,29.5.28,56.79,7.47,78.65,28.81,10.86,10.61,13.94,24.7,14.72,38.9a422.34,422.34,0,0,1-.52,48.78C212,145.79,212,153.75,200.83,157.19Zm-5-42.75C179.63,94.3,155.19,84,146.78,59.16c22.77,3.53,31.53,28.1,51.86,35.37,4.24-35.68-38.78-55-71.85-53.55C126.43,82.18,151.41,111.32,195.85,114.44Z"/><path class="cls-2" d="M403,345.35c-.77-8.24-1-16.59-2.43-24.71-4.67-26.14-28.41-39.11-55.61-41.17-15.32-1.16-30.95,2-46.46,2.84-3.12.18-6.31-1.07-9.47-1.67,1.71-3.08,2.68-7.51,5.3-8.94,4.6-2.52,10.21-3.2,16.3-4.91-13.1-11.86-18.49-26.89-15.74-44.38,1.85-11.78,7.95-21.19,17.42-28.56,18.1-14.08,47.74-11.57,62.28,5.46,15.77,18.47,12.88,47.66-8.05,68.48,28.13,9.15,47.73,25.48,48.65,56.92l-9.05-15.18C405,322.38,404,333.86,403,345.35ZM338.93,201.6c-17.84-.18-29.47,11.56-29.69,30-.21,17.46,12.76,30.31,30.89,30.6,16.34.26,29.29-13.28,29.56-30.93C370,212.5,358.88,201.8,338.93,201.6Z"/><path class="cls-1" d="M46.48,107.2C37.29,91.79,36.89,79.51,45,69.43c9.82-12.15,22.38-15.94,37-11.15,14,4.58,22.13,20,18.58,35S80.43,120.54,66.83,118c-14.18-2.61-17.81-.36-21.94,13.77-.78,2.65-.8,5.65-2.09,8-1.39,2.49-3.88,4.36-5.88,6.51-1.84-2.59-5.12-5.11-5.25-7.79C31,125.61,36.65,115.21,46.48,107.2Zm23.33-2.87c9.51-.16,18.44-8.48,18.49-17.26.06-9.08-8-17-17.24-16.95-10.54,0-18.58,7.87-18.46,18S59.17,104.51,69.81,104.33Z"/><path class="cls-1" d="M403,345.35c1-11.49,2-23,3.14-35.82l9.05,15.18c.08.74.15,1.48.23,2.22l.12,45.38c-3.53,2.88-7,8.18-10.61,8.27-29.41.68-58.86.58-88.28.12-3,0-5.95-4-8.92-6.08,3-2.12,6-5.94,9.14-6.06,15.49-.64,31-.29,48.33-.29,0-7.91-.6-14.36.26-20.62.41-3,3.6-5.53,5.53-8.28,2.2,2.57,5.89,4.92,6.32,7.76.95,6.4.3,13,.3,21,7.41,0,13.86.47,20.16-.28,1.89-.23,4.52-3.71,4.83-6C403.34,356.48,402.93,350.88,403,345.35Zm3.85-3.34-1-.38v21.95l1,0Z"/><path class="cls-2" d="M353.21,104.67c-.1,4.15-3.69,9.33-12.12,9.83-8,.47-13.31-5.13-13.09-13.81.2-7.71,2.68-13.61,12-13.45C348.82,87.39,353.29,91.87,353.21,104.67Z"/><path class="cls-1" d="M136.5,380.71c2.22-.64,4.45-1.84,6.67-1.84q76.13,0,152.24.16c-2.22.64-4.43,1.86-6.65,1.86Q212.64,380.92,136.5,380.71Z"/><path class="cls-2" d="M415.52,372.31l-.12-45.38Z"/><path class="cls-1" d="M142.84,327v41.08c8.34,0,16.18.48,23.88-.34,1.89-.21,4.49-4.57,4.75-7.22.72-7.19-.2-14.58.73-21.73.36-2.72,4-5,6.12-7.5,2.05,2.52,5.5,4.85,5.88,7.59.89,6.46.27,13.11.32,19.68s2.51,9.94,10,9.69c15.49-.51,31-.15,47.91-.15,0-9.22,0-17.74,0-26.25,0-7.72,3.42-11.61,12.48-10.18v35.7h29.21V326.83q1.81-5.62,3.62-11.25l2.27-.68c1.55,6.18,4.07,12.31,4.46,18.57.73,11.72-.08,23.53.34,35.28.23,6.7-2.75,8.08-8.7,8.06q-72.18-.24-144.36-.05c-5.59,0-9.88-1.19-9.41-7.87,1.26-18.16,2.07-36.4,4.47-54.42.71-5.28,2.06-13.42,9.16-14.46C144.86,309.56,143.85,318.27,142.84,327ZM139,365.74l1,.06V328.91h-1Z"/><path class="cls-2" d="M406.83,342v21.53l-1,0V341.63Z"/><path class="cls-2" d="M139,365.74V328.91h1V365.8Z"/></svg>