<svg id="Layer_1" data-name="Layer 1" xmlns="http://www.w3.org/2000/svg" viewBox="0 0 393.81 375.41"><defs><style>.cls-1{fill:#effcfa;}.cls-2{fill:#8de7c5;}.cls-3{fill:#46c59c;}.cls-4{fill:#76e9d1;}.cls-5{fill:#9eedfa;}.cls-6{fill:#fefefe;}.cls-7{fill:#c2f2fd;}.cls-8{fill:#3aa58b;}</style></defs><path class="cls-1" d="M317,83.38c4.68,1.11,9.77,1.42,13.92,3.56,3.38,1.74,5.62,5.65,8.37,8.61.05,6.66-.08,13.34.2,20,.39,9.5-3.53,14.3-13.47,14.31-2.27,0-4.54,2.83-6.81,4.36l-2.69,5.1,11.57,11-14.26,6.52c0,1-.07,2.09-.1,3.14l12.49,4.71c-9,8.14-17.67,16-26.55,23.57-.22.19-3-2.67-4.64-4.11L290.94,182l0,0c-10.43-8.24-18.12-5.78-20.2,6.42-.55,3.23-1.27,6.44-1.91,9.65h0l-2,2h0l-34.26,0,0,0-2.06-2.06,0,0-4-6.06,0,0-2-6.08,0,.05-2-2h0q0-4.06.05-8.12c9.89-.15,17.67,1.91,23.46,11.89,3.86,6.66,15,2.07,16.48-6.09,2.11-11.36,15.78-20.55,25.82-15,12.63,7,17.24.38,22.17-8.69-17.46-26.3-13.42-35.54,17.9-39.18V100.56c-1.47-.38-2.44-.93-3.34-.82-8.44,1.05-15-1.13-18.94-9.46-4.38-9.26-7.25-17.7,2.5-25.88,6.53-5.48.43-10.36-2.72-14.6-4.14-5.55-7.24-.74-10.74,1.61s-8.13,6.36-11.09,5.51C275,54.32,266.34,50,257.85,45.67c-1.23-.63-.76-5-.73-7.6.1-9.94-7.42-15-15.81-9.72-2.79,1.75-4.19,6.4-5.33,10-4.34,13.74-21.72,20.23-33.16,11.9-4.69-3.41-8.62-4.7-13.09.22-4,4.35-8.28,8.14-3,14.52,2.9,3.52,5,7.66,7.63,11.69-10,8-6.93,29.16-27.17,25-2.31,16.57-2.18,16.11,12.2,20.15,3.74,1.05,8.53,5.6,9.09,9.13,1.07,6.81.33,14.24-1.26,21-1.67,7.15,0,12.07,5,17.06,4.86,4.83,8,1.62,12.12-.86,8.45-5.07,13.87-2.61,18.31,7.71L204.51,180c-4.9-1.33-11.07-6.52-12.08,4l0,0c-6.28-5-13.31-9.23-18.69-15-10.46-11.29-9.13-16.29,4.53-22.78,3.82-10.52,0-15.64-12.94-16.21-5.86-.26-11.08-.67-10.88-8,.27-10.18,1.18-20.35,1.81-30.53l-.08.1,2.12-2.28c2.59-1,5.13-2.07,7.77-2.87,3.16-.95,7.69-.67,9.22-2.73s0-6.27-.27-9.53a4.38,4.38,0,0,0-.75-1.84c-8.58-13.39-8.38-15.21,3.06-27,2.56-2.65,5.39-5.06,7.77-7.85,5.33-6.27,9.92-8.12,17.7-2.08,3.81,2.94,11.59,1.25,17.47.67,1.35-.14,3.23-4.32,3.27-6.67.2-10.19,5.59-16.13,15.62-16.25,7-.08,14.06,0,21.09-.05,8.08-.11,11.09,5.1,11.61,11.85,1,13.37,4.49,15.58,16.79,10.54,6.86-2.8,14.42-9.85,20.4,1.5l6.13,8.36-.08-.1,2.1,2.11-.1-.09,4.12,4.1-.09-.09,2.1,2.1-.08-.09c3.33,6.26,1.45,10.78-3.89,15.2C314.55,72.31,309,77.11,317,83.38Z"/><path class="cls-2" d="M254.76,254.51c.69-2.85,1.37-5.7,2.33-9.65-11.71-1-22.67-1-33.26-2.93-16.31-3-32.45-7.09-48.51-11.28-20.63-5.37-41.1-6.58-61.54.44-6.16,2.12-9.17,5.39-6.32,12.9,5.11,13.44,9.07,27.3,13.5,41,2.31,7.15,6.56,9.73,14.67,10.42,15.53,1.32,30.8,5.56,46.3,7.7,18.41,2.55,37,6.08,55.42,5.49,11.6-.38,24.65-5.24,34.07-12.14,16.87-12.36,32.28-27,46.82-42.16,13.09-13.6,24.25-29.05,36.12-43.8A16.13,16.13,0,0,0,358,199.89c-4.81,3-9.74,5.75-14.39,9-12.06,8.29-24,16.76-36,25.18-1.09.77-2.12,2.44-3.12,2.4-6.06-.25-12.1-.87-18.15-1.37,2-4.88,2.69-11.25,6.24-14.36,8.69-7.61,18.9-13.46,28.11-20.53,7.93-6.09,15.53-12.66,22.91-19.42,10.92-10,31.22-8,38.72,4.56,1.76,3,2.75,8.43,1.2,11-7.16,11.95-15.35,23.29-23.17,34.83-.47-.44-.95-.87-1.45-1.27,6.14-9.54,12.63-18.87,18.22-28.72,2-3.56,3.89-9.49,2.29-12.39-5.24-9.51-26.23-10.85-34.64-3.7-14.25,12.1-29,23.59-43.32,35.63-3.68,3.09-6.43,7.29-9.6,11,.81,1.1,1.63,2.19,2.45,3.29,3.76-1.38,8.11-2,11.17-4.28,16.74-12.57,33.06-25.72,49.83-38.25,2.15-1.6,6.31-1.51,9.11-.71,1,.29,1.68,5.24.92,7.55a40.69,40.69,0,0,1-6,11.53C333.9,244.91,307,277.71,271.51,302.2c-11.25,7.77-23,15.08-38,12.58-9.53-1.6-19.21-2.31-28.78-3.72-23.44-3.45-46.78-8-70.34-10.18-8.93-.82-13.15-3.31-15.85-11.35-6.23-18.57-13-36.95-19.69-55.79l9.58-4.26c18.82-8.29,37.77-11.75,58.29-5.48s41.55,10.94,62.45,15.94c3.39.82,7.27,0,10.87-.52,6.55-.91,13.05-2.14,19.57-3.23.77,1,1.53,1.94,2.3,2.9l-7.11,17.53C254.8,255.92,254.78,255.21,254.76,254.51Z"/><path class="cls-1" d="M109.25,325.71c5.46,12.67,4.46,15.89-8.17,22q-15.93,7.74-32.34,14.45c-6.28,2.59-11.5,1-14-6.07l.3-3.48c8-.63,16.66,2.74,25.44-3.33l-8.76-4.51,23.06-10.33c-11.34-27.05-22.13-53-33.06-78.86-8.86-21-5.63-16.7-23.81-11l-16.31-6.11,42.17-14.28-.15-.14c12.11,29.23,24.08,58.52,36.46,87.63C102.24,316.79,106.15,321.07,109.25,325.71Z"/><path class="cls-2" d="M285,309.78c-11.73,11.76-25.42,20.36-42.43,19-26.93-2.17-53.7-6.18-80.6-8.72a200.89,200.89,0,0,0-34.51-.29c-8.78.68-14.73-.21-17.85-9.76-6.12-18.75-12.91-37.3-19.78-55.79-2.06-5.55-5.32-10.66-8-16-3.34-6.61-6.27-13.35,3.23-17.35,18.92-8,37.21-18.61,58.87-16.4,8.25.84,16.8,1.82,24.47,4.7A187.14,187.14,0,0,0,236.13,221a171.83,171.83,0,0,1,23,1.79c14.9,1.93,19.21,11.4,13.75,29.55l.07.06a32.09,32.09,0,0,1-1.37-4.79c-2.48-20.56-2.93-21.16-23.13-21.3-24.52-.18-49-1.54-72-10.62-25.32-10-49.51-8.21-73.82,2.48-17.18,7.56-17.23,7.45-11.54,24.32.32.95.46,2,.78,2.91,6.85,20.26,13.91,40.44,20.46,60.8,3,9.39,8.19,11.28,17.36,8.37a46.11,46.11,0,0,1,19.58-1.84c17.84,2.45,35.41,7.14,53.29,8.83s36.06,2.61,53.65.3c10.12-1.33,19.31-9.76,28.92-15Z"/><path class="cls-3" d="M55.05,352.64l-.3,3.48Q37,315,19.19,273.86c-3.42-7.94-7.33-15.76-9.74-24-.95-3.26.54-10.07,2.67-10.93,15.36-6.19,31.15-11.35,46.9-16.56,1.24-.41,3.16,1.22,4.76,1.9L21.61,238.54c-8.21,2.9-10.52,8-6.69,16.12,2.27,4.79,3.66,10,5.69,14.91Q37.77,311.14,55.05,352.64Z"/><path class="cls-2" d="M272.84,252.31c-1,14.87-7.94,22.57-24.17,23.36-20.93,1-42,1-62.91,0-4.23-.2-11.25-6.5-11.47-10.31-.27-4.61,4.11-11.64,12.32-7.57l-.18,2.59q-4.4,2.46-8.78,4.93l.8,3.47c4.27,1.19,8.52,3.29,12.82,3.4,14.95.38,29.94.52,44.88-.13,14.44-.62,29.9-.31,35.07-18.75.13-.45,1.11-.65,1.69-1Z"/><path class="cls-3" d="M285,309.78c0-1,.07-2,.11-2.94,16.52-15.48,33.31-30.69,49.45-46.55,8.22-8.06,15.28-17.29,22.87-26l-.08-.06c-13.08,22.7-30.76,41.54-50.1,58.87C300.36,299.27,292.43,304.26,285,309.78Z"/><path class="cls-3" d="M109.25,325.71c-3.1-4.64-7-8.92-9.16-14-12.38-29.11-24.35-58.4-36.46-87.63,4.51,7.78,9.86,15.2,13.38,23.4C88.13,273.42,98.55,299.62,109.25,325.71Z"/><path class="cls-4" d="M186.43,260.42l.18-2.59,68.15-3.32c0,.7,0,1.41.07,2.11-5.05,1.29-10.08,3.57-15.16,3.7C221.94,260.75,204.18,260.44,186.43,260.42Z"/><path class="cls-2" d="M156.24,91.43c-.63,10.18-1.54,20.35-1.81,30.53-.2,7.34,5,7.75,10.88,8,12.94.57,16.76,5.69,12.94,16.21l-1.75-6.46-4.09-4.39c-.91-.41-1.8-.86-2.72-1.21-5.55-2.1-15.58-3.67-15.89-6.35-1.35-11.77.11-23.85.65-35.81C154.46,91.76,155.62,91.61,156.24,91.43Z"/><path class="cls-2" d="M319.17,134.22c2.27-1.53,4.54-4.36,6.81-4.36,9.94,0,13.86-4.81,13.47-14.31-.28-6.66-.15-13.34-.2-20,.45,10,1.44,20.08.92,30.06-.12,2.29-5.14,5-8.4,6.28C327.84,133.38,323.39,133.5,319.17,134.22Z"/><path class="cls-5" d="M232.61,200.07l34.26,0C259.27,208,237.59,207.94,232.61,200.07Z"/><path class="cls-2" d="M317,83.38c-8-6.27-2.41-11.07,2.28-14.95,5.34-4.42,7.22-8.94,3.89-15.2,7.48,4.86,7.3,8.23,1.42,15.28C321.07,72.68,319.43,78.37,317,83.38Z"/><path class="cls-5" d="M268.87,198.08c.64-3.21,1.36-6.42,1.91-9.65,2.08-12.2,9.77-14.66,20.2-6.42-10-3.35-16.85-2-17.23,10.66C273.69,194.52,270.57,196.28,268.87,198.08Z"/><path class="cls-5" d="M222.62,175.89q0,4.05-.05,8.12c-5.49-6.43-12-2.18-18.12-1.72l-.36-.34c.15-.65.29-1.29.42-1.95l18.16-4.07Z"/><path class="cls-1" d="M204.45,182.29l-12,1.7,0,0,11.66-2Z"/><path class="cls-2" d="M315.16,45.29,309,36.93Z"/><path class="cls-5" d="M226.58,192l4,6.06Z"/><path class="cls-1" d="M172.41,135.33l4.09,4.39C175.14,138.26,173.78,136.79,172.41,135.33Z"/><path class="cls-5" d="M224.57,186l2,6.08Z"/><path class="cls-2" d="M321.2,51.31l-4.12-4.1Z"/><path class="cls-5" d="M290.94,182l4.05,2.21Z"/><path class="cls-2" d="M317.18,47.3l-2.1-2.11Z"/><path class="cls-2" d="M323.21,53.32l-2.1-2.1Z"/><path class="cls-3" d="M359.85,231.91l-2.52,2.33.08.06v-2Z"/><path class="cls-2" d="M359.85,231.91l-2.44.39c.5-.82,1-1.63,1.51-2.44.5.4,1,.83,1.45,1.27C360.38,231.14,359.85,231.91,359.85,231.91Z"/><path class="cls-5" d="M266.85,200.1l2-2Z"/><path class="cls-5" d="M230.6,198.05l2.06,2.06Z"/><path class="cls-5" d="M222.56,184l2,2Z"/><path class="cls-2" d="M158.28,89.25l-2.12,2.28Z"/><path class="cls-4" d="M222.67,175.93c-4.44-10.32-9.86-12.78-18.31-7.71-4.12,2.48-7.26,5.69-12.12.86-5-5-6.71-9.91-5-17.06,1.59-6.8,2.33-14.23,1.26-21-.56-3.53-5.35-8.08-9.09-9.13-14.38-4-14.51-3.58-12.2-20.15,20.24,4.15,17.17-17,27.17-25-2.59-4-4.73-8.17-7.63-11.69-5.26-6.38-.94-10.17,3-14.52,4.47-4.92,8.4-3.63,13.09-.22,11.44,8.33,28.82,1.84,33.16-11.9,1.14-3.61,2.54-8.26,5.33-10,8.39-5.24,15.91-.22,15.81,9.72,0,2.62-.5,7,.73,7.6C266.34,50,275,54.32,284.12,56.92c3,.85,7.6-3.16,11.09-5.51s6.6-7.16,10.74-1.61c3.15,4.24,9.25,9.12,2.72,14.6-9.75,8.18-6.88,16.62-2.5,25.88,3.95,8.33,10.5,10.51,18.94,9.46.9-.11,1.87.44,3.34.82v18.29c-31.32,3.64-35.36,12.88-17.9,39.18-4.93,9.07-9.54,15.7-22.17,8.69-10-5.58-23.71,3.61-25.82,15-1.52,8.16-12.62,12.75-16.48,6.09-5.79-10-13.57-12-23.46-11.89ZM246.16,61.69c-23.59-.16-46.41,21.91-45.24,45.79,1.43,29.2,17.87,47.28,48.11,48.09,25.24.67,47.58-22,48-46.8C297.48,77.87,275.37,63.6,246.16,61.69Z"/><path class="cls-6" d="M204.09,182l-11.66,2c1-10.49,7.18-5.3,12.08-4C204.38,180.66,204.24,181.3,204.09,182Z"/><path class="cls-6" d="M358.92,229.86c-.51.81-1,1.62-1.51,2.44v2c-7.59,8.7-14.65,17.93-22.87,26-16.14,15.86-32.93,31.07-49.45,46.55-9.61,5.23-18.8,13.66-28.92,15-17.59,2.31-35.86,1.38-53.65-.3s-35.45-6.38-53.29-8.83a46.11,46.11,0,0,0-19.58,1.84c-9.17,2.91-14.33,1-17.36-8.37-6.55-20.36-13.61-40.54-20.46-60.8-.32-1-.46-2-.78-2.91-5.69-16.87-5.64-16.76,11.54-24.32,24.31-10.69,48.5-12.49,73.82-2.48,23,9.08,47.48,10.44,72,10.62,20.2.14,20.65.74,23.13,21.3a32.09,32.09,0,0,0,1.37,4.79c-.58.32-1.56.52-1.69,1-5.17,18.44-20.63,18.13-35.07,18.75-14.94.65-29.93.51-44.88.13-4.3-.11-8.55-2.21-12.82-3.4l-.8-3.47q4.38-2.48,8.78-4.93c17.75,0,35.51.33,53.24-.1,5.08-.13,10.11-2.41,15.16-3.7l7.11-17.53c-.77-1-1.53-1.93-2.3-2.9-6.52,1.09-13,2.32-19.57,3.23-3.6.49-7.48,1.34-10.87.52-20.9-5-41.92-9.67-62.45-15.94s-39.47-2.81-58.29,5.48l-9.58,4.26c6.69,18.84,13.46,37.22,19.69,55.79,2.7,8,6.92,10.53,15.85,11.35,23.56,2.19,46.9,6.73,70.34,10.18,9.57,1.41,19.25,2.12,28.78,3.72,15,2.5,26.72-4.81,38-12.58,35.45-24.49,62.39-57.29,87.86-91.42a40.69,40.69,0,0,0,6-11.53c.76-2.31.09-7.26-.92-7.55-2.8-.8-7-.89-9.11.71-16.77,12.53-33.09,25.68-49.83,38.25-3.06,2.31-7.41,2.9-11.17,4.28-.82-1.1-1.64-2.19-2.45-3.29,3.17-3.68,5.92-7.88,9.6-11,14.3-12,29.07-23.53,43.32-35.63,8.41-7.15,29.4-5.81,34.64,3.7,1.6,2.9-.27,8.83-2.29,12.39C371.55,211,365.06,220.32,358.92,229.86Z"/><path class="cls-3" d="M37.92,244.65c18.18-5.74,14.95-10,23.81,11,10.93,25.87,21.72,51.81,33.06,78.86L71.73,344.8c-2.28-2.78-5.29-5.23-6.73-8.39-12.77-28.15-25.27-56.44-38-85Z"/><path class="cls-7" d="M37.92,244.65,27,251.38c12.74,28.59,25.24,56.88,38,85,1.44,3.16,4.45,5.61,6.73,8.39l8.76,4.51c-8.78,6.07-17.41,2.7-25.44,3.33q-17.23-41.53-34.44-83.07c-2-4.92-3.42-10.12-5.69-14.91-3.83-8.08-1.52-13.22,6.69-16.12Z"/><path class="cls-8" d="M246.16,61.69c29.21,1.91,51.32,16.18,50.83,47.08-.38,24.82-22.72,47.47-48,46.8-30.24-.81-46.68-18.89-48.11-48.09C199.75,83.6,222.57,61.53,246.16,61.69Zm-31.52,47c.19,19.35,15.33,34.88,33.94,34.8,19.25-.09,35.49-15.93,35.64-34.78.14-18.62-16.81-35.34-35.41-34.92S214.47,90.18,214.64,108.69Z"/><path class="cls-1" d="M214.64,108.69c-.17-18.51,15.46-34.48,34.17-34.9s35.55,16.3,35.41,34.92c-.15,18.85-16.39,34.69-35.64,34.78C230,143.57,214.83,128,214.64,108.69Zm60.06.9c-.06-13.6-12.47-26.24-25.51-26s-24.64,13.05-24.42,26.94c.19,11.46,11.86,22.67,23.87,22.9C259.73,133.65,274.74,119.91,274.7,109.59Z"/><path class="cls-4" d="M274.7,109.59c0,10.32-15,24.06-26.06,23.85-12-.23-23.68-11.44-23.87-22.9-.22-13.89,11.37-26.68,24.42-26.94S274.64,96,274.7,109.59Z"/></svg>