<svg id="Layer_1" data-name="Layer 1" xmlns="http://www.w3.org/2000/svg" viewBox="0 0 426.18 406.26"><defs><style>.cls-1{fill:#1b1893;}.cls-2{fill:#070778;}.cls-3{fill:#eeeffb;}.cls-4{fill:#5f6dfd;}.cls-5{fill:#fefdfb;}.cls-6{fill:#e7ebfd;}.cls-7{fill:#a8b0fe;}.cls-8{fill:#0d57c7;}</style></defs><path class="cls-1" d="M33.3,262.07q0-6.52,0-13c.83-3.39,2.38-6.77,2.4-10.16q.24-70,0-140c0-3.1-1.3-6.19-2-9.29,2.82-16.26,12-21.93,41.5-25.11,0-5.63-.13-11.4,0-17.16.5-18.2,11.22-30.26,29.24-30.48,44.16-.53,88.35-.69,132.51,0,22.06.35,33,13,33.13,35.49.14,24.23,0,48.47,0,72.81,16.44,1.35,32,3.38,47.64,3.51,5.17,0,10.38-4.82,15.58-7.43q24.26-12.18,43.19,6.49l-1.11,8.89c-2.92-2-4.36-3-5.84-4-12.3-7.94-25-7.34-36.22,2.1-1.09.92-.51,3.81-.7,5.79L337,151.17l4.61,4.65-.13-.12,4.58,4.54-.2-.19,9.18,6.7-.15-.16,5.9,6.42,6.93-6.6,1.64-1.81,11.33-3.46c.17,3.11.31,5.55.44,8l0,.07L376.85,174c-13.9,9.21-16,22.78-15.8,38.27.54,47.85.16,95.71.13,143.57,0,24.34-10.43,35.49-34.53,35.52q-110.46.14-220.93-.39c-20.41-.08-31.86-11.82-32.34-32.23-.23-9.87,0-19.76,0-29.54-32.76-4.14-43.35-16.16-40-44.78Zm35.92,48.6c.7-3.8,2-7.58,2-11.38.17-28.17.1-56.34.09-84.51,0-6.35,0-12.69-.07-19l9.14-11.08,7.29-2.46,2.32.21,3.28-1.82,18,0c1.63.66,3.26,1.88,4.89,1.89q48.43.18,96.87,0c.69,0,1.38-1.47,2.07-2.25,1.42-8.49,2.68-17,4.29-25.48,2.05-10.75-3.07-13.08-12.72-12.5-15.28.94-32.12,4.57-37.73-16.35l-5.73,9.58V83.37l-16.73-.79,11-2.93c-31.59-1.07-63.09-1.57-94.56-.86-15.61.35-20.46,6.71-20.46,22.52q0,70.08,0,140.15c0,17.66-.09,35.32.14,53,0,1.43,2.16,2.84,3.31,4.26a2,2,0,0,0,1.07.9c3,9.37,8.75,14.68,19.23,12.9Zm181-276.18.17.16c-4.27-2.35-8.51-6.68-12.8-6.73-44.6-.49-89.2-.37-133.81-.17a23.61,23.61,0,0,0-11.47,3c-8.73,5.19-10.45,20.62-3.34,25.75,4.2,1.55,8.38,4.37,12.61,4.45,23.48.44,47-.32,70.44.56,6.61.25,14.43,3.13,19.34,7.46,18.39,16.24,35.67,33.74,53.73,50.37,3.12,2.88,8,3.8,12.13,5.62a2.93,2.93,0,0,0,1,.39c.29,0,.8-.32.8-.5.87-24.16,2.31-48.33,2.13-72.48C261.08,45.66,260.62,36.2,250.18,34.49Zm18.24,223.74,9.26-5.8-30.47-28c-16.68,15.5-16.88,35.93-24.06,56.48L237,277.23Zm67.67,118.18c9.54-.25,16.26-8.66,16.29-21.1.09-38.36.21-76.73-.18-115.08-.07-6.69-2.57-13.35-3.94-20-.33-2-.65-4-1.42-8.86l-41,44c-2.95,2.54-5.62,5.53-8.89,7.53-18.35,11.27-37.11,21.89-55.19,33.57-10.41,6.73-19.66,10-29-1l-4.69-11q4.74-25,9.47-50c6.68-7.64,13-15.66,20.12-22.86,20.32-20.53,41.06-40.64,61.36-61.18,2.26-2.29,2.74-6.33,4.05-9.56a3.33,3.33,0,0,0,.58-.91,1.48,1.48,0,0,0-.16-.91q-28.86.22-57.73.54l.4,1-4.55,6.61c-.75,6-1.83,12-2.18,18-.55,9.51,3.05,22.9-1.85,27.53-5.47,5.17-18.45,2.93-28.17,3-37.14.23-74.29,0-111.43.21-3.74,0-7.47,1.58-11.2,2.42l-1.32,2.23c-1.81,2.73-5.16,5.46-5.17,8.19,0,9.09,1.74,18.17,1.79,27.26.25,40.52,0,81,.2,121.55.06,14.65,8.7,24.07,22.72,24.1q111.08.27,222.17-.16c3,0,6-3.42,9-5.25C336.24,376.22,336.09,376.4,336.09,376.41Zm14.2-194.9c-8.91-7.26-17-14.86-26.12-20.73-3.11-2-10.52-1.4-13.36,1-11.4,9.82-22,20.59-32.44,31.49-6.69,7-18,15.43-17.25,22.15.78,7.29,13.39,13.06,20.29,20,5.91,6,10.65,4.67,15.86-.6C314.53,217.41,331.88,200,350.29,181.51Zm-166-98.29c0,12.88-.23,22.77.16,32.64.1,2.41,2.11,6.74,3.4,6.8,11.26.54,22.57.32,33.85.32Z"/><path class="cls-2" d="M332.76,140.56c.19-2-.39-4.87.7-5.79,11.2-9.44,23.92-10,36.22-2.1,1.48,1,2.92,2,5.84,4l1.11-8.89c13.61,12.92,15,25.44,4.49,41.39-.13-2.45-.27-4.89-.44-8l-11.33,3.46c8.88-15.22,6.79-26.6-6.53-31.86C351.24,128.17,341.46,132.87,332.76,140.56Z"/><path class="cls-2" d="M33.78,89.6c.69,3.1,2,6.19,2,9.29q.18,70,0,140c0,3.39-1.57,6.77-2.4,10.16Q33.55,169.32,33.78,89.6Z"/><path class="cls-2" d="M33.3,262.07l0,22.37Z"/><path class="cls-3" d="M305.87,255.31l41-44c.77,4.81,1.09,6.84,1.42,8.86-.09,44.78,0,89.57-.55,134.34-.07,5.55-3.85,11-5.91,16.56.36-6.55.73-13.09.93-16.6-19.84-1.29-37.88-3-56-3.51-19.13-.58-38.3-.27-57.44.09-3.37.07-6.76,3.51-10,3.33-14.8-.83-29.55-2.56-44.34-3.56-3.08-.21-6.26,1.37-9.42,2-5.73,1.13-11.5,3.19-17.21,3-11.08-.3-22.12-2.29-33.21-2.74-6-.24-12,1.25-18.72,2-5.78,10.75-3.44,15.34,9.5,15.4,32.78.17,65.57,0,98.35.07q68.78.15,137.55.44l-5.73,5.32.15-.18a88.34,88.34,0,0,1-9.83,1q-110,.12-219.93.06c-13.8,0-20.79-5.85-20.91-19.95-.42-52.27-.09-104.56,0-156.84l1.32-2.23,128.89.47c8.37,0,16.75,0,25.94,0V147.13l4.55-6.61,56.91.27c-1.31,3.23-1.79,7.27-4.05,9.56-20.3,20.54-41,40.65-61.36,61.18-7.13,7.2-13.44,15.22-20.12,22.86-.64-.84-1.28-2.41-1.91-2.41-23.16.08-46.35-.42-69.44.82-11.57.61-24,13.33-24,22.43-.24,26.48-.41,53,.42,79.43.12,4,5.69,7.78,8.75,11.66q83.87.17,167.74.23c2.67,0,5.35-1.53,8-2.35l5.13-7.25.24-70C311.5,262.37,316,254.66,305.87,255.31Z"/><path class="cls-4" d="M305.87,255.31c10.11-.65,5.63,7.06,6.64,11.61l-.24,70-5.13,7.25q-82.21,0-164.43.08c-3.78,0-7.55,1.33-11.33,2-3.06-3.88-8.63-7.69-8.75-11.66-.83-26.45-.66-53-.42-79.43.08-9.1,12.48-21.82,24-22.43,23.09-1.24,46.28-.74,69.44-.82.63,0,1.27,1.57,1.91,2.41q-4.73,25-9.47,50c-16.85-.74-33.7-1.89-50.55-1.82-3.06,0-7.9,4.6-8.76,7.89-1.57,6,2.23,9.25,8.89,9.13,14.34-.25,28.7.21,43-.28,4.07-.14,8.06-2.56,12.08-3.94,9.3,11,18.55,7.75,29,1,18.08-11.68,36.84-22.3,55.19-33.57C300.25,260.84,302.92,257.85,305.87,255.31Z"/><path class="cls-3" d="M257.18,124.93c-4.09-1.82-9-2.74-12.13-5.62C227,102.68,209.71,85.18,191.32,68.94c-4.91-4.33-12.73-7.21-19.34-7.46-23.45-.88-47-.12-70.44-.56-4.23-.08-8.41-2.9-12.61-4.45C88.89,33.23,90.27,32,114,32c40.48,0,81-.09,121.44.11,5,0,9.93,1.67,14.9,2.57l-.17-.16c2.34,7.44,6.4,14.82,6.69,22.34C257.76,79.5,257.19,102.23,257.18,124.93Z"/><path class="cls-4" d="M111.27,180.61l-18,0L90,182.41l-2.33-.22-7.28,2.47-9.14,11.08-2.52,2.62-1.36,0-2.64-2.5-15.09-.54q-.33-26.62-.67-53.25c7.46-.58,14.92-1.61,22.39-1.66,27.18-.19,54.37.13,81.55-.24,3.46-.05,6.88-3.06,10.32-4.69l5.73-9.58c5.61,20.92,22.45,17.29,37.73,16.35,9.65-.58,14.77,1.75,12.72,12.5-1.61,8.46-2.87,17-4.29,25.48Z"/><path class="cls-5" d="M163.21,135.52c-3.44,1.63-6.86,4.64-10.32,4.69-27.18.37-54.37,0-81.55.24-7.47.05-14.93,1.08-22.39,1.67l-1.37-1.78-2.09-.68c.21-13.54.16-27.09.7-40.62C46.68,86.83,51,83,63,82.92q41.74-.21,83.49-.34l16.73.79Zm-18.83-22.27L140,111.14a16.85,16.85,0,0,0,2-3.71c1.47-5.61,3.27-11.24,3.55-16.93,0-.85-7.29-2.92-11.23-3-19.45-.32-38.94.41-58.36-.4-8.79-.37-14.33,2.88-19.35,9.27-9.34,11.91-10.06,30.47-2.44,37.83l13.22-11.7H147C146,118.83,145.18,116,144.38,113.25Z"/><path class="cls-3" d="M350.29,181.51c-18.41,18.52-35.76,35.9-53,53.38-5.21,5.27-9.95,6.57-15.86.6-6.9-7-19.51-12.74-20.29-20-.72-6.72,10.56-15.15,17.25-22.15,10.41-10.9,21-21.67,32.44-31.49,2.84-2.44,10.25-3,13.36-1C333.33,166.65,341.38,174.25,350.29,181.51Zm-64.49,27,.65,3.35c3.57,0,8.37,1.49,10.5-.26a291.4,291.4,0,0,0,23.82-22.69c1.16-1.2,1.09-4.92.06-6.46-.71-1.08-4.88-1.42-6-.41C304.93,190.66,295.42,199.65,285.8,208.53Z"/><path class="cls-2" d="M85.53,200.53c0,52.28-.38,104.57,0,156.84.12,14.1,7.11,19.94,20.91,19.95q110,.1,219.93-.06a88.34,88.34,0,0,0,9.83-1c-3,1.83-6,5.24-9,5.25q-111.08.45-222.17.16c-14,0-22.66-9.45-22.72-24.1-.16-40.51.05-81-.2-121.55-.05-9.09-1.81-18.17-1.79-27.26C80.37,206,83.72,203.26,85.53,200.53Z"/><path class="cls-3" d="M332.76,140.56c8.7-7.69,18.48-12.39,30.06-7.82,13.32,5.26,15.41,16.64,6.53,31.86l-1.64,1.81-12.83.18.15.16-9.18-6.7.19.19-4.57-4.54.13.12L337,151.17Z"/><path class="cls-5" d="M212.83,295.39c-4,1.38-8,3.8-12.08,3.94-14.33.49-28.69,0-43,.28-6.66.12-10.46-3.1-8.89-9.13.86-3.29,5.7-7.87,8.76-7.89,16.85-.07,33.7,1.08,50.55,1.82Q210.5,289.9,212.83,295.39Z"/><path class="cls-2" d="M146.48,82.58q-41.74.17-83.49.34C51,83,46.68,86.83,46.19,99c-.54,13.53-.49,27.08-.7,40.62l.39,159c-1.16-1.41-3.31-2.82-3.32-4.25-.23-17.65-.14-35.31-.14-53q0-70.07,0-140.15c0-15.81,4.85-22.17,20.46-22.52,31.47-.71,63-.21,94.56.86Z"/><path class="cls-6" d="M237,277.23l-13.86,3.66c7.18-20.55,7.38-41,24.06-56.48l30.47,28-9.26,5.8c-7.72-3.74-17.16-12.22-22.77-10.17-9.68,3.52-16.09,14.06-15.37,26.3Z"/><path class="cls-2" d="M250.35,34.65c-5-.9-9.93-2.54-14.9-2.57C195,31.88,154.49,32,114,32c-23.74,0-25.12,1.26-25.08,24.5-7.11-5.13-5.39-20.56,3.34-25.75a23.61,23.61,0,0,1,11.47-3c44.61-.2,89.21-.32,133.81.17C241.84,28,246.08,32.3,250.35,34.65Z"/><path class="cls-3" d="M184.29,83.22,221.7,123c-11.28,0-22.59.22-33.85-.32-1.29-.06-3.3-4.39-3.4-6.8C184.06,106,184.29,96.1,184.29,83.22Z"/><path class="cls-6" d="M47.58,140.34,49,142.12q.34,26.61.67,53.25c-.13,31.62-.45,63.25-.23,94.87,0,5.43.07,12.57,9.11,12,9.47-.58,5.91-7.92,6-12.53.33-31.27.22-62.54.26-93.82l2.64,2.5q-.27,33.49-.55,67c-.16,15.69-.41,31.39-.62,47.09C55.69,314.27,50,309,46.94,299.59Q47.26,220,47.58,140.34Z"/><path class="cls-7" d="M237,277.23l-6.73-2.87c-.72-12.24,5.69-22.78,15.37-26.3,5.61-2.05,15,6.43,22.77,10.17Z"/><path class="cls-2" d="M341.81,371.09c2.05-5.51,5.83-11,5.9-16.55.58-44.77.46-89.56.55-134.34,1.37,6.68,3.87,13.34,3.94,20,.39,38.35.27,76.72.18,115.08,0,12.44-6.75,20.85-16.29,21.09Z"/><path class="cls-2" d="M241.68,147.13v51.64c-9.19,0-17.57,0-25.94,0L86.85,198.3c3.73-.84,7.46-2.4,11.2-2.42,37.14-.19,74.29,0,111.43-.21,9.72-.06,22.7,2.18,28.17-3,4.9-4.63,1.3-18,1.85-27.53C239.85,159.12,240.93,153.14,241.68,147.13Z"/><path class="cls-2" d="M257.18,124.93c0-22.7.58-45.43-.31-68.1-.29-7.52-4.35-14.9-6.69-22.34,10.44,1.71,10.9,11.17,10.95,17.85.18,24.15-1.26,48.32-2.13,72.48,0,.18-.51.49-.8.5A2.93,2.93,0,0,1,257.18,124.93Z"/><path class="cls-4" d="M47.58,140.34q-.31,79.62-.64,159.25a2,2,0,0,1-1.07-.91q-.18-79.5-.38-159Z"/><path class="cls-2" d="M68.71,198.36l2.52-2.62c0,6.35.07,12.69.07,19,0,28.17.08,56.34-.09,84.51,0,3.8-1.29,7.58-2,11.38Z"/><path class="cls-8" d="M68.71,198.36l.51,112.31-3,1.82c.21-15.7.46-31.4.62-47.09q.33-33.51.55-67Z"/><path class="cls-2" d="M111.27,180.61l103.83-.34c-.69.78-1.38,2.25-2.07,2.25q-48.43.15-96.87,0C114.53,182.49,112.9,181.27,111.27,180.61Z"/><path class="cls-2" d="M303.14,140.79l-56.91-.27c-.13-.34-.27-.68-.4-1q28.86-.3,57.73-.54a1.48,1.48,0,0,1,.16.91A3.33,3.33,0,0,1,303.14,140.79Z"/><path class="cls-2" d="M354.88,166.59l12.83-.18-6.93,6.6Z"/><path class="cls-2" d="M345.85,160.05l9.18,6.7Z"/><path class="cls-2" d="M337,151.17l4.61,4.65Z"/><path class="cls-2" d="M341.47,155.7l4.57,4.54Z"/><path class="cls-2" d="M80.37,184.66l7.28-2.47Z"/><path class="cls-2" d="M90,182.41l3.28-1.82Z"/><path class="cls-6" d="M341.81,371.09q-68.76-.24-137.54-.45c-32.78-.07-65.57.1-98.35-.07-12.94-.06-15.28-4.65-9.5-15.4,6.7-.78,12.75-2.27,18.72-2,11.09.45,22.13,2.44,33.21,2.74,5.71.16,11.48-1.9,17.21-3,3.16-.63,6.34-2.21,9.42-2,14.79,1,29.54,2.73,44.34,3.56,3.26.18,6.65-3.26,10-3.33,19.14-.36,38.31-.67,57.44-.09,18.07.55,36.11,2.22,56,3.51C342.53,358,342.16,364.55,341.81,371.09Z"/><path class="cls-8" d="M131.38,346.32c3.78-.71,7.55-2,11.33-2q82.22-.19,164.43-.08c-2.67.82-5.35,2.35-8,2.35Q215.24,346.6,131.38,346.32Z"/><path class="cls-8" d="M312.27,337l.24-70Z"/><path class="cls-7" d="M64.71,195.9c0,31.28.07,62.55-.26,93.82,0,4.61,3.52,11.95-6,12.53-9,.56-9.07-6.58-9.11-12-.22-31.62.1-63.25.23-94.87Z"/><path class="cls-3" d="M67.39,122.51l-13.22,11.7c-7.62-7.36-6.9-25.92,2.44-37.83,5-6.39,10.56-9.64,19.35-9.27,19.42.81,38.91.08,58.36.4,3.94.07,11.27,2.14,11.23,3-.28,5.69-2.08,11.32-3.55,16.93a17.15,17.15,0,0,1-2,3.72h-9.08c-1.5-1.27-3-3.66-4.52-3.62-19.35.49-38.69,1.3-58,2.27-.51,0-.88,2.74-1.32,4.21Z"/><path class="cls-1" d="M67.39,122.51,67,114l6.39-1,71,.23c.8,2.79,1.59,5.58,2.65,9.26Z"/><path class="cls-7" d="M144.38,113.25l-71-.23c3.53-.49,7-1.34,10.58-1.41,15.63-.28,31.27-.33,46.9-.46H140Z"/><path class="cls-1" d="M285.8,208.53c9.62-8.88,19.13-17.87,29-26.47,1.16-1,5.33-.67,6,.41,1,1.54,1.1,5.26-.06,6.46A291.4,291.4,0,0,1,297,211.62c-2.13,1.75-6.93.26-10.5.26Z"/><path class="cls-5" d="M130.89,111.15c-15.63.13-31.27.18-46.9.46-3.53.07-7,.92-10.58,1.41L67,114c.44-1.47.81-4.18,1.32-4.21,19.34-1,38.68-1.78,58-2.27C127.85,107.49,129.39,109.88,130.89,111.15Z"/></svg>