<svg id="Layer_1" data-name="Layer 1" xmlns="http://www.w3.org/2000/svg" viewBox="0 0 426.18 406.26"><defs><style>.cls-1{fill:#0746ae;}.cls-2{fill:#a4e2fb;}.cls-3{fill:#c2f2fd;}.cls-4{fill:#87cef5;}.cls-5{fill:#84e0f9;}.cls-6{fill:#92e6fa;}.cls-7{fill:#0648b6;}.cls-8{fill:#6bccf0;}.cls-9{fill:#0d57c7;}.cls-10{fill:#0833a9;}.cls-11{fill:#5f6dfd;}.cls-12{fill:#e7ebfd;}.cls-13{fill:#1b1893;}</style></defs><path class="cls-1" d="M129.4,43.75q.34,14.88.68,29.76c1.43,5.07,2.86,10.14,4.43,15.73l-7.62,8.85L124,101.62a.63.63,0,0,0-.45,1l-.11.38-3.07,3.77.15,0q-1.83,2.75-3.64,5.49l.17-.15c-1.94,3.24-4.38,6.28-5.73,9.74-3.56,9.13-6.65,18.45-9.93,27.69.46-6,.93-11.95,1.46-18.84H92.43c1.13-10.24-7.11-8.2-12.25-8.47-13.41-.7-5,11.25-8.89,16.84L60.7,122.85c-2.31-1.15-4.56-3.12-6.93-3.29-6.44-.46-12.93-.22-19.39-.15-6.29.06-9.06-3-9-9.22.06-20.28.09-40.56,0-60.84,0-5,1.54-7.73,7-7.71q37.92.15,75.85,0c5.28,0,7.46,2.25,7.33,7.44a189.76,189.76,0,0,0,.15,19.38c.16,2.12,2.43,4.08,3.74,6.11,7,4.94,7.92-.42,8.38-5.27C128.61,60.8,128.9,52.26,129.4,43.75Zm-57.69,39L70,84.48C62.18,88.65,64,95.38,65.19,102c1.34,7.64,6,11.82,13.45,13,4.66.76,9.12-5.15,6-8.52-7.6-8.22-3.87-14,2.25-20.19a23.87,23.87,0,0,0,4.2-6.66c4.17-8.81,1-19.27-6.34-21.83L83.4,56.61c-2.31-8-9.05-9-15.19-7.59-6.72,1.57-15.2,2.13-17,11.53,0,.13.43.35.66.53-3.57,9.53,2.2,9.62,8.89,8.8a18.24,18.24,0,0,1,3.63-2c3.3-.94,7.36-3.1,9.78-1.95,1.93.92,2,6,2.68,9.22a20.23,20.23,0,0,1,0,4.33l-1.34,1.25L71.7,82.87Z"/><path class="cls-2" d="M124,101.62l2.89-3.53c8.58-6.42,16.62-13.77,25.83-19.1,30.76-17.8,63.4-21.11,97.46-10.83,1.39.42,3.33-1,5-1.54L280,80.28l3.75,1.82h-.19L285.43,84l-.1-.13,5.57,3.41-.12-.05,1.69,2.07-.06-.06,1.84,1.83-.08-.08L296,92.85l-.09-.09,1.86,1.86-.09-.09,1.85,1.86-.09-.09L301.56,98l-.21-.19,1.93,2-.12-.18-.2,5.59h0c-2.64-1.67-5.22-3.46-7.94-5-2.89-1.62-5.92-3-8.89-4.47l.32-.52L283.6,91l-3.75-1.5L274.47,86l-3.34-2c-3.34-6.67-22.15-15.18-29.3-13.2-.44.12-.7.86-1,1.32l-3.28-.74c-1.14-1.09-2.14-2.94-3.42-3.15a124.84,124.84,0,0,0-51,1.94c-3.24.81-6,3.65-8.93,5.56v-.25c-7,.86-14.06,1.62-17.79,9l.15-.15-5.3,3.71.06-.12c-11.16,2.91-17.89,10.35-21.47,21-5.84,2.91-10,6.87-8.79,14.16-1.83,2.46-4.09,4.7-5.4,7.41-8.3,17.17-8.27,35.64-6.88,54,.46,6.09,4.55,11.9,7,17.83.5,7.59.72,15.3,8.77,19.49l1.68,3.57c1.11,1.26,2.22,2.51,3.32,3.77,1.55,2,3.09,4,4.64,6l.27.11-.46,1.42,1.11-1,4,2.93.46-.13c.74,1.25,1.48,2.51,2.23,3.76l1.41,1.17,7.26,7.33,0-.06,3.22,2.18.19-.23,1.76,1.7-.18.16,2.33,3.33,1.24,1.5,2.26,1.93-.34.11c6,8.34,8.34,17.62,8.16,27.86-.05,3,2,6,3.07,9,2.48.53,4.95,1.52,7.43,1.53,24.64.13,49.29-.16,73.93.26,7.06.11,9.43-2.08,8.85-9-.84-10.06-.49-20,8-27.48.63-.56.31-2.21.43-3.36l1.42-1.25,3.51-2.37-.19.08,2.26-3.18.33.35-.36-.31,3.09-2.3.34.43c.58-.61,1.17-1.22,1.75-1.84a.77.77,0,0,1-.55-1.08l4.61,1.61h0c-4,4.83-8.27,9.43-11.74,14.6-1.53,2.28-1.38,5.71-2,8.61-.72,1.11-1.44,2.22-2.17,3.33-1.77,2.46-4.74,4.76-5.08,7.4-.75,5.74-.16,11.65-.12,17.49l0-.12L264.13,304l-1.81,2.9h0l-2.16-.39c-1-.47-2.05-1.33-3.08-1.33q-44.37.15-88.76.46c-4.27-1.1-8.93-1.79-8.66-7.86.83-19-9.13-32.3-23.11-43.5-2-1.62-3.6-3.81-5.38-5.73-1.35-4.11-1.81-8.86-4.21-12.23-19.41-27.23-26.35-57.35-20.43-90,2.11-11.66,6.91-22.83,10.49-34.23l-.17.15q1.82-2.74,3.64-5.49l-.15,0q1.55-1.87,3.07-3.77s.11-.38.11-.36l1.49.13Z"/><path class="cls-1" d="M326,102l-12.45.06-3.05.38,1.23,2.73c.06,1.25.11,2.5.17,3.75q-4.36-4.59-8.74-9.19l.12.18-1.93-2,.21.19-2.09-1.73.09.09-1.85-1.86.09.08-1.86-1.85.09.09L294.17,91l.08.08-1.84-1.83.06.06-1.69-2.07.12.05-5.57-3.41.1.13-1.85-1.92h.19c-.12-.53-.24-1.07-.34-1.62l14.42-8.9L299.31,70a11.38,11.38,0,0,0,.1-1.3l1.83-.32c1.29.4,2.84,1.49,3.83,1.12,21.7-8.21,43.51-9.45,65.56-1.52-.84,3-1.67,6-2.51,9l-5.61-3.06c.18-.69.71-1.83.49-2-8.37-6.34-30.26-5.14-38.67,2l.14-.17c-8.12-.22-8.42,0-8.61,5.34-.45,2.55-.91,5.1-1.36,7.65,2.34-.23,5.36.4,6.93-.82,14.58-11.36,29-7.86,43.58-.2l-14.37,2.15c-6.79,3.32-16.44,1.78-19.42,11.75C330.86,100.8,327.81,101.19,326,102Zm-16.87-3.42.33-.65-.47-.11Z"/><path class="cls-3" d="M303.16,99.69q4.36,4.61,8.74,9.19l-.1-.19,2.47,3.32q4.41,11.86,8.81,23.73c.26,1.73.51,3.47.77,5.2-.1,2.45-.29,4.89-.31,7.34-.08,12.75.37,25.53-.37,38.24-.49,8.37-2.67,16.65-4.09,25l.14.09c-.55,1.72-1.11,3.43-1.66,5.15l-2,3.69-1.76,3.41c-.39.66-.78,1.32-1.18,2l-4.13,5.2.22,0c-5.16,1.89-4.55,4.24-.54,6.86C297.79,249,287.41,260.19,277,271.26c-.94,1-2.43,1.47-3.66,2.19.62-2.9.47-6.33,2-8.61,3.47-5.17,7.78-9.77,11.74-14.6l8.08-5.38-2.73-2.43-5.33,7.82-4.6-1.61,3.17-5.46c18.82-15,28.07-35.12,31.26-58.47.41-3.19,1.1-6.37,1.19-9.56.75-26.29-5.56-50.22-23.8-70.08l.07.12-1.93-1.83.09.09-1.86-1.86.1,0-2.53-2.4a.93.93,0,0,0-.53-.75l-.45-.4-1.11-2.23c3,1.48,6,2.85,8.89,4.47,2.72,1.53,5.3,3.32,7.94,5l8.73,20.16,3.31-1.83-12-18.34Z"/><path class="cls-4" d="M255.54,342.05c.71,2.29,2.75,5.73,1.92,6.68-9.24,10.63-17.41,21.14-33.66,24.15-19.12,3.54-31.86-2-42.68-16.57-1.81-2.45-5-3.86-7.48-5.85-3.52-2.82-3.78-5.67.14-8.41l12.83.33c1.3.49,2.6,1.4,3.91,1.41q29,.19,57.94.1c1.56,0,3.12-1,4.68-1.56Zm-55.63,7.48H237.5c0-.92-.05-1.85-.07-2.78L197,349.22c-.31,1.44-1.35,3.29-.81,4.24,4.65,8.16,12.31,10.48,21.07,9.88s16.57-2.92,21.82-13.81Z"/><path class="cls-5" d="M357.73,347.13c-1.75,1.38-3.31,3.52-5.28,4-5,1.2-10.25,1.65-15.39,2.4.11-4.64.16-9.27.36-13.9.12-2.68.49-5.34.74-8-.9-1.75-1.52-4.71-2.78-5-3.05-.74-6.41-.24-9.65-.25-10.78-.06-13.85-2.9-13.91-13.36-.07-13.83.05-27.66.08-41.48l1.65,1.7c0,8.52-.24,17,.08,25.55.21,5.67,1.22,11.3,1.87,16.95l-.15-.21,1.7,1.92,16,3.3c17.73.87,17.72.87,14.8,19.39-.08.45.33,1,1.31,3.59,7.51-8,14.38-15.27,21.26-22.56,4.91,0,9.84.16,14.75-.13,7.06-.42,14.1-1.19,21.15-1.81,1.43-9.43,3.2-18.82,4.15-28.3.78-7.74.56-15.57.79-23.37l-.3.31,2.23,1.73.66,0,.65.12,0,0c-.09.71-.19,1.42-.28,2.12q0,23.58,0,47.16c.1,1.25.21,2.5.31,3.75-1.44,1.82-2.89,3.64-4.33,5.47-7.24.5-15.08,3-21.6,1.09-14-4.13-20.42,4-27.19,13.07v0Z"/><path class="cls-4" d="M60.7,122.85,71.29,139c3.92-5.59-4.52-17.54,8.89-16.84,5.14.27,13.38-1.77,12.25,8.47C81.86,134,80.92,143.31,78.74,152c-1.42,5.7-4.11,9-9.32,2.72l-1.77-3.43h0c-.58-1.18-1.17-2.35-1.75-3.52l0,0c-.58-1.18-1.17-2.35-1.76-3.53l0,0-1.79-1.78h0c-.59-1.18-1.17-2.36-1.76-3.53h0l-1.75-1.75,0-.07L57,133.64v.05c-2.2-1.23-4.34-3.39-6.61-3.53-9.07-.56-18.19-.49-27.28-.65-7-11.53-5.55-24.61-6.22-37.11C16.31,80.91,18,69.32,18,57.78c0-4.19-2.21-8.36-3.42-12.54.12-1.19.24-2.38.35-3.57l5.35-2.1v77.95c1.4-22.26,1.35-44.5,1.47-66.74,0-3.09.94-6.18,1.44-9.27,0,23.71.3,47.43,0,71.13-.11,7.82,2.95,10.26,10.38,10C42.56,122.22,51.64,122.72,60.7,122.85Z"/><path class="cls-3" d="M23.16,41.51c-.5,3.09-1.42,6.18-1.44,9.27-.12,22.24-.07,44.48-1.47,66.74V39.57l-5.35,2.1Q18.29,36.36,21.66,31c28.83,0,57.66-.09,86.49,0,3.65,0,7.3,1.13,11,1.74H24.62c0,.83,0,1.66,0,2.49a7.67,7.67,0,0,0,2.3.85c29.05.05,58.1.11,87.14-.09,1.67,0,3.32-2.18,5-3.34l3.92,0q3.22,5.51,6.46,11c-.51,8.51-.8,17-1.61,25.54-.46,4.85-1.4,10.21-8.38,5.27-.08-7.63.08-15.28-.28-22.9C118.62,40.79,116,38.37,105,38.33c-24.09-.07-48.18-.12-72.28.15C29.55,38.52,26.36,40.46,23.16,41.51Z"/><path class="cls-3" d="M255.2,66.62c-1.69.55-3.63,2-5,1.54-34.06-10.28-66.7-7-97.46,10.83-9.21,5.33-17.25,12.68-25.83,19.1l7.62-8.85c-1.57-5.59-3-10.66-4.43-15.73l13.12,4.57c24-16,52.7-20.82,82.75-19.83,2.31.86,4.57,1.89,6.93,2.54C240.3,62.81,247.75,64.68,255.2,66.62Z"/><path class="cls-3" d="M117.05,112.05c-3.58,11.4-8.38,22.57-10.49,34.23-5.92,32.69,1,62.81,20.43,90,2.4,3.37,2.86,8.12,4.21,12.23-12-12.42-19.95-26.79-25.75-43.37-4.64-13.27-3.44-26-4-39.08-.22-5.54-.07-11.08-.09-16.62,3.28-9.24,6.37-18.56,9.93-27.69C112.67,118.33,115.11,115.29,117.05,112.05Z"/><path class="cls-6" d="M313.55,273.19l-1.65-1.7-2-3.75c-.05-6.17,3.81-8,9.12-8.18a.72.72,0,0,1-.05.87l-2.29,3.91c28.74,0,56.88,0,85-.08,1.86,0,3.71-1.13,5.57-1.74a9.09,9.09,0,0,1,1.73.1l1.89,1.72,0,0c.11,1.07.23,2.14.35,3.21-.23,7.8,0,15.63-.79,23.37-.95,9.48-2.72,18.87-4.15,28.3.26-14.28.69-28.56.54-42.84,0-1.73-3.15-3.44-4.84-5.15l-3.5-1.72h-3.66C393.22,269,391.62,268,390,268c-22.18-.6-44.35-1.14-66.53-1.42-1.52,0-3.06,2.1-4.59,3.23l-1.72,1.66Z"/><path class="cls-7" d="M257,329.77c-1.33,3.68-10.71,1.27-6.76,8.94l-7.68,1.51c-2.79-.51-5.57-1.44-8.36-1.48-17.08-.2-34.16-.19-51.24-.25l-.51-3.29-6.7-3.88.09-1.27,79.23-.41Zm-68.61,2.1-.12.91h52.44c0-.3,0-.6,0-.91Z"/><path class="cls-7" d="M176.29,312l-4.3-2.13,5.46-1c3.09.51,6.18,1.44,9.27,1.47q25.14.21,50.26,0c3.1,0,6.19-.93,9.29-1.44l9.71,1.66L253.67,313l-1.92.68H249.4l-6.6,3.71c-16.61,0-33.22-.1-49.82.07-3.92,0-7.83,1-11.75,1.5-.78-.93-1.64-1.8-2.33-2.8C178,314.85,177.16,313.4,176.29,312Z"/><path class="cls-6" d="M365,85.71c-14.56-7.66-29-11.16-43.58.2-1.57,1.22-4.59.59-6.93.82.45-2.55.91-5.1,1.36-7.65l8.61-5.34-.14.17c12.72-3.32,25.45-5.21,38.18,0l5.61,3.06C371.62,81.46,369.15,83.88,365,85.71Z"/><path class="cls-4" d="M175.87,330.05l-.09,1.27c-10.07-.18-6.05-5.58-3.82-10.31l5.49,0c1.56.58,3.12,1.66,4.68,1.67q32.49.18,65,0c1.55,0,3.09-1.18,4.63-1.81l1.47-1.36c8.25,2.73,9,4.62,3.83,10.23l-1.93-.13c-1.57-.56-3.12-1.57-4.71-1.61q-37.11-1-74.23-1.65a18.22,18.22,0,0,0-3.72.89Z"/><path class="cls-4" d="M301.24,68.37l-1.83.32L293.89,63l3.85-3.82,2.87-.49a2.43,2.43,0,0,1,.47-.84l.19-.34,4.9,0L310,55.73l3.75-1.4c1.89.45,3.8,1.34,5.68,1.27,10.78-.38,21.62-2,32.31-1.23,8.21.56,16.24,3.94,24.35,6.06-.16.77-.31,1.54-.46,2.3l-4.75,2.08-.4.21-.33-.31c-3.13-2.17-6.13-6-9.41-6.22-11.88-.91-23.85-.69-35.79-.65-.84,0-1.69,2-2.53,3L320.6,61l-11.3,2.28Z"/><path class="cls-2" d="M326,102c1.81-.77,4.86-1.16,5.22-2.35,3-10,12.63-8.43,19.42-11.75.37,1.66.45,3.47,1.18,5,4.63,9.49,3.41,15.38-4.22,19.56-9.11,5-13.1,3.85-19.39-5.74A36.43,36.43,0,0,1,326,102Zm7.56.76,9.1,7.63c2.07-3.08,5.17-6,5.79-9.32.3-1.63-4.14-5.87-6.24-5.74C339.76,95.44,337.54,99.08,333.56,102.72Z"/><path class="cls-8" d="M119.11,32.82c-3.66-.61-7.31-1.72-11-1.74C79.32,31,50.49,31,21.66,31c3.8-1.1,7.58-3.1,11.38-3.15,25.29-.34,50.58-.52,75.86-.08,4.71.08,9.37,3.22,14,4.95l-3.92,0Z"/><path class="cls-9" d="M293.89,63l5.52,5.71a11.38,11.38,0,0,1-.1,1.3l-1.46,1.59-14.42,8.9-3.41-.2L255.2,66.62c-7.45-1.94-14.9-3.81-22.32-5.83-2.36-.65-4.62-1.68-6.93-2.54,19.25,1.2,36.42,8.84,53.68,16.61,7.76,3.5,13.66-2.37,13.21-12l.51.19Z"/><path class="cls-3" d="M407.3,262.52c-1.86.61-3.71,1.73-5.57,1.74-28.15.11-56.29.08-85,.08l2.29-3.91,86.14.34Z"/><path class="cls-3" d="M309.92,267.74l2,3.75c0,13.82-.15,27.65-.08,41.48.06,10.46,3.13,13.3,13.91,13.36,3.24,0,6.6-.49,9.65.25,1.26.31,1.88,3.27,2.78,5-6.38-.38-12.89-.12-19.1-1.34s-11.15-4.68-10.19-12.37l-.58,0-.1-.55.12.22q0-23.1,0-46.2l-.09.05,1.7-3.45Z"/><path class="cls-3" d="M14.55,45.24C15.76,49.42,18,53.59,18,57.78c.06,11.54-1.66,23.13-1,34.62.67,12.5-.75,25.58,6.22,37.12l-3.17.53q-2.67-6.32-5.35-12.63,0-36,0-72.07Z"/><path class="cls-10" d="M301.24,68.37c2.69-1.68,5.37-3.37,8.07-5L320.6,61l1.84-.17c16.18-2,32.29-3.19,47.73,3.84l.33.31.41-.21,7.92,1.79L370.63,68c-22.05-7.93-43.86-6.69-65.56,1.52C304.08,69.86,302.53,68.77,301.24,68.37Z"/><path class="cls-2" d="M378.83,66.6l-7.92-1.79,4.74-2.08c.15-.76.3-1.53.46-2.3-8.11-2.12-16.14-5.5-24.35-6.06-10.69-.73-21.53.85-32.31,1.23-1.88.07-3.79-.82-5.69-1.27l42.56-2.24,26.87,6.3Z"/><path class="cls-11" d="M315.58,220.43l2-3.7c.55-1.72,1.1-3.43,1.66-5.15l-.15-.09c10.69-22.9,11.46-46.47,4.78-70.55-.26-1.73-.51-3.47-.77-5.2.89.68,2.4,1.22,2.58,2,6.55,29.89,6.43,59.09-9.6,86.49-.31-.23-.62-.47-.91-.72Z"/><path class="cls-9" d="M177.45,321,172,321l4.33-9c.87,1.42,1.67,2.87,2.61,4.23.69,1,1.55,1.87,2.33,2.8l61.4,0h4l.06-1.17-3.85-.42h0l6.6-3.71c1.26,1.94,2.53,3.87,3.8,5.81l-1.47,1.36Z"/><path class="cls-8" d="M177.45,308.83l-5.46,1-3.63-4.21a35.73,35.73,0,0,0,6,1q42.93,0,85.85-.13l2.16.39L256,310.52l-9.71-1.67Z"/><path class="cls-8" d="M182.48,335.2l.51,3.29-.8,1.2c.44.29.88.84,1.31.84q29.55-.11,59.09-.31l7.68-1.51,5.27,3.34-2.4.28-66.53,0-12.83-.32Z"/><path class="cls-8" d="M356.32,52.09l-42.56,2.24L310,55.73l-3.85,1.79-4.9,0c6.62-2.42,13.08-6,19.9-7,10-1.46,20.22-1.22,30.36-1.34C353.11,49.16,354.72,51.07,356.32,52.09Z"/><path class="cls-12" d="M260.19,306.51q-42.93.09-85.85.13a35.73,35.73,0,0,1-6-1h0q44.39-.25,88.76-.46C258.14,305.18,259.16,306,260.19,306.51Z"/><path class="cls-11" d="M414.52,322.65c-.1-1.25-.21-2.5-.31-3.75q0-23.58,0-47.16c.09-.7.19-1.41.28-2.12.69,1.73,2,3.48,2,5.19C415.91,290.76,415.18,306.7,414.52,322.65Z"/><path class="cls-9" d="M405.13,260.77,319,260.43a.72.72,0,0,0,.05-.87q40.59-.12,81.17-.16C401.85,259.4,403.49,260.29,405.13,260.77Z"/><path class="cls-8" d="M361.4,342.28c6.77-9,13.23-17.2,27.19-13.07,6.52,1.93,14.36-.59,21.6-1.09-6,1.24-12,3.5-18.05,3.51-10,0-20-1.44-26.1,9.25C365.45,341.9,363,341.84,361.4,342.28Z"/><path class="cls-1" d="M14.63,45.35q0,36,0,72.07c-.51-.9-1.46-1.81-1.47-2.72Q13,81.34,13.06,48C13.07,47.09,14.08,46.22,14.63,45.35Z"/><path class="cls-8" d="M20,130.05l3.17-.53c9.09.15,18.21.08,27.28.64,2.27.14,4.41,2.3,6.61,3.53-8.94-.12-17.89,0-26.79-.52C26.76,133,23.39,131.14,20,130.05Z"/><path class="cls-3" d="M265.92,301.67c0-5.84-.63-11.75.12-17.49.34-2.64,3.31-4.94,5.08-7.4q-.08,8.88-.14,17.74c-1.12,2.36-2.23,4.71-3.35,7.06l0,0A12.72,12.72,0,0,0,265.92,301.67Z"/><path class="cls-9" d="M308.32,271.33q0,23.1,0,46.2Q308.31,294.43,308.32,271.33Z"/><path class="cls-11" d="M312.64,225.81c.4-.66.79-1.32,1.18-2a5,5,0,0,1,1.33-.27c.29.25.6.49.91.72q-3.06,4.74-6.14,9.47c-.39-.9-.79-1.8-1.19-2.71l-.22,0Z"/><path class="cls-12" d="M308.73,231c.4.91.8,1.81,1.19,2.71-.58,1.38-1.15,2.77-1.73,4.15C304.18,235.28,303.57,232.93,308.73,231Z"/><path class="cls-8" d="M267.63,301.58c1.12-2.35,2.23-4.7,3.35-7.06C269.86,296.87,268.75,299.23,267.63,301.58Z"/><path class="cls-8" d="M265.92,301.67a12.72,12.72,0,0,1,1.74-.12l-5.34,5.36c.6-1,1.21-1.93,1.81-2.91.59-.82,1.18-1.63,1.76-2.45Z"/><path class="cls-11" d="M411.23,267.51c-.12-1.07-.24-2.14-.35-3.21l3.59,5.34-.65-.12-.66,0-2.23-1.73Z"/><path class="cls-2" d="M311.73,105.13l-1.23-2.73,3.05-.38Z"/><path class="cls-8" d="M293.89,63l-.54.09-.51-.19,4.9-3.72Z"/><path class="cls-8" d="M357.73,347.13l3.68-4.87Z"/><path class="cls-1" d="M314.27,112l-2.47-3.32Z"/><path class="cls-8" d="M64.09,144.25c.59,1.18,1.18,2.35,1.76,3.53C65.27,146.6,64.68,145.43,64.09,144.25Z"/><path class="cls-8" d="M67.65,151.33l1.77,3.43Z"/><path class="cls-8" d="M57,133.64l1.76,3.5Z"/><path class="cls-8" d="M65.87,147.8c.58,1.17,1.17,2.34,1.75,3.52C67,150.14,66.45,149,65.87,147.8Z"/><path class="cls-8" d="M60.57,139c.59,1.17,1.17,2.35,1.76,3.53C61.74,141.31,61.16,140.13,60.57,139Z"/><path class="cls-6" d="M309.93,267.93l-1.7,3.45Z"/><path class="cls-11" d="M410.92,264.34,409,262.62Z"/><path class="cls-8" d="M251.75,313.72l1.92-.68Z"/><path class="cls-9" d="M308.19,317.31l.1.55.58,0A.54.54,0,0,0,308.19,317.31Z"/><path class="cls-8" d="M58.83,137.21,60.58,139Z"/><path class="cls-8" d="M62.34,142.5l1.79,1.78Z"/><path class="cls-8" d="M301.08,57.83a2.43,2.43,0,0,0-.47.84A.88.88,0,0,1,301.08,57.83Z"/><path class="cls-10" d="M23.16,41.51c3.2-1,6.39-3,9.6-3,24.1-.27,48.19-.22,72.28-.15,11,0,13.58,2.46,14.1,13.33.36,7.62.2,15.27.28,22.9-1.31-2-3.58-4-3.74-6.11a189.76,189.76,0,0,1-.15-19.38c.13-5.19-2-7.46-7.33-7.44q-37.92.16-75.85,0c-5.49,0-7.06,2.73-7,7.71.11,20.28.08,40.56,0,60.84,0,6.17,2.75,9.28,9,9.22,6.46-.07,12.95-.31,19.39.15,2.37.17,4.62,2.14,6.93,3.29-9.06-.13-18.14-.63-27.18-.26-7.43.31-10.49-2.13-10.38-10C23.46,88.94,23.19,65.22,23.16,41.51Z"/><path class="cls-4" d="M75.46,80.73l1.34-1.25c1.1-4.11,4.37-10.27,2.83-11.9C76.44,64.19,70.7,63.2,66,61.22l-3.56-1.89c3.29-6.76,9.61-4.17,13.35-2.44,4,1.85,8.17,6.66,9.19,10.91,1.27,5.28-.6,11.33-1.12,17L77.62,91.3c-1.41,1.84-3.81,3.57-4,5.52-.32,3.29.76,6.72,1.26,10.09-1.08-.26-2.45-.19-3.18-.83-7.5-6.6-4-14.16-1.75-21.59.58-.6,1.17-1.2,1.76-1.79v.17Z"/><path class="cls-10" d="M70,84.48c-2.26,7.44-5.76,15,1.74,21.6.73.64,2.1.57,3.18.83,5.35,3.71,3.85-.46,3.64-3.16-.31-4.15-.6-8.3-.9-12.45l6.24-6.46c7.33-9.61,7.56-16.57.89-27,7.39,2.56,10.51,13,6.34,21.83a23.87,23.87,0,0,1-4.2,6.66c-6.12,6.22-9.85,12-2.25,20.19,3.12,3.37-1.34,9.28-6,8.52-7.4-1.19-12.11-5.37-13.45-13C64,95.38,62.18,88.65,70,84.48Z"/><path class="cls-2" d="M84.75,57.82c6.67,10.45,6.44,17.41-.89,27,.52-5.71,2.39-11.76,1.12-17-1-4.25-5.17-9.06-9.19-10.91-3.74-1.73-10.06-4.32-13.35,2.44l0,0-8-.24c9-8.31,18.63-9.09,28.89-2.46Z"/><path class="cls-10" d="M83.4,56.61C73.14,50,63.51,50.76,54.51,59.07a1.26,1.26,0,0,0-1.13,1.14l-1.55.87c-.23-.18-.69-.4-.66-.53,1.84-9.4,10.32-10,17-11.53C74.35,47.59,81.09,48.61,83.4,56.61Z"/><path class="cls-10" d="M66,61.22c4.7,2,10.44,3,13.63,6.36,1.54,1.63-1.73,7.79-2.83,11.9a20.23,20.23,0,0,0,0-4.33c-.68-3.26-.75-8.3-2.68-9.22-2.42-1.15-6.48,1-9.78,1.95a18.24,18.24,0,0,0-3.63,2c.07-1.11.15-2.22.22-3.33l-.14,0,.09-4.81.25.17Z"/><path class="cls-2" d="M60.94,66.55c-.07,1.11-.15,2.22-.22,3.33-6.69.82-12.46.73-8.89-8.8l1.55-.86C53.5,65.19,53.57,70.23,60.94,66.55Z"/><path class="cls-3" d="M123.44,103q-1.53,1.89-3.07,3.77Z"/><path class="cls-3" d="M120.52,106.71q-1.83,2.75-3.64,5.49Q118.7,109.46,120.52,106.71Z"/><path class="cls-10" d="M75.46,80.73,71.7,82.87Z"/><path class="cls-3" d="M124,101.62l1,1.11-1.49-.13A.64.64,0,0,1,124,101.62Z"/><path class="cls-10" d="M71.71,82.7l-1.77,1.79Z"/><path class="cls-7" d="M286.12,95.83l1.11,2.23c-.24.4-.49.79-.73,1.18l1.18-.78a.9.9,0,0,1,.52.76l2.54,2.39-.1,0,1.86,1.86-.09-.09,1.93,1.83-.07-.12c1,2.6,1.77,5.28,3,7.77,4.75,9.91,9.62,19.76,14.45,29.64-10.14,6.7-13.74,16.17-12.39,28.05.53,4.63,1,9.58-.07,14-2.12,9.06-4.36,18.46-14.49,22.56,8.26-10.73,14.83-22,10.95-36.37l-1.83-5.47c3.07-8.23,4.66-16.29-2.69-23.32l-.13.1-1.93-1.85.15.09-1.9-1.89.39-.2-2.35-2.14-7.18-3.74c.09-15.7.09-15.7-7.14-23.43-2.28-2.85-4.65-5.64-6.83-8.57-15.09-20.22-36.75-19.49-50.2,1.2l-7.26-4.86-1.26-1.49c-1.25-7-6.63-9.29-12.47-9.18-7.47.15-16.44-2.5-20.68,7.31l0-.13L168.6,94.9l.16-.16-1.9,1.91.15-.07-8.82,9.65A1.23,1.23,0,0,1,157,107.3c-2.56,2.23-6.38,4-7.43,6.77-2.84,7.53-1.34,17-10.71,21.36-.35.16-.09,1.64-.11,2.5l-1.15,1.19c-2.66,3-7.17,5.66-7.62,8.91-1.49,10.82-2.68,21.93-1.76,32.74s4.3,21.63,16,26.68l-.07-.06c.61,9.12,8.8,7.07,13.9,8.77,4.92,1.64,8.2,2.51,5.87,8.73-.52,1.42,1.71,3.86,2.68,5.83l.44,1.8,5.13,11.38,2.61,2.68a1.16,1.16,0,0,1,1.05,1.09l9.27,10.77-.07.09,5.18,5.5-.1,0L198,275c2.26,4.92-2.3,15.23,9.79,12.36,1.08-1.44,2.9-2.78,3.13-4.35,1.48-10-10.13-31.45-19.3-35.95-.68-.33-1.71,0-2.57.05a3.46,3.46,0,0,1-1.23-.29,11.7,11.7,0,0,0,0-1.18l-4.1-4-3-3c-.34-3.4-.68-6.79-1.13-11.38,3.95,0,7.52.61,10.77-.14C195.29,226,202,227,203,219.32l.31.27c.58-.59,1.15-1.19,1.72-1.78,0,0-.12-.17-.12-.16,3.18-3.1,6.34-6.21,9.35-9.17,5.24,15.39,18.15,20.44,33.49,21.41-.35,3.42-.62,6-.88,8.49l0-.17-2,1.89.08-.3c-.64.84-1.28,1.67-1.93,2.5l-2.91,2.87-2.41,1.93L238,247l-1.9,2,.2,0c-6.33-.4-6.67,4.26-7.32,8.66l.12,0-2.87,3.82-.19,0-2.32,5,.21.11c-6.62,3.83-8,15.23-2.5,21,.68,5.77-2.67,6.95-7.5,6.89-9.65-.12-19.31,0-29,0-14.92,0-12.23.72-13-12.56-.49-8.1-1.45-16.84-11-20.52l.34-.11L159,259.29l-1.24-1.5-2.33-3.33.19-.17-1.77-1.69-.18.22c-1.07-.73-2.15-1.45-3.23-2.17l0,.06-7.26-7.33-1.41-1.17-2.23-3.76-.45.13c1.23-5.48-1.36-7.37-6.47-6.89l.08-.29-1.79-2.07.1.19c-5.1-13.27-10.17-26.55-15.35-39.78-.25-.64-1.46-.9-2.21-1.33l-1.17-7.12c1-1.17,2.94-2.51,2.78-3.48-3.25-18.85,1.91-36.15,9.24-53.15,1-2.25.87-5,1.27-7.47l-.1,0,3.69-5.35h-.08l5.63-7.23,1.17-1.37,2.35-2-.29.16,1.88-2-.16.15,1.9-1.94-.07.31c.68-.83,1.36-1.65,2.05-2.47a1.1,1.1,0,0,1,1.13-1L148,92l-.08-.48c1.87-.14,4.2.38,5.54-.54,13-9,27.29-15.65,43-16.76,20.7-1.46,41.76-3.2,61.22,7.46,2.9,1.59,6.69,1.55,10.07,2.26l-.11,0,3.86,1.69-.1-.08c1.54,6.49,5.75,9.3,12.28,8.88l2.77,1Z"/><path class="cls-10" d="M161,261.33c9.52,3.68,10.48,12.42,11,20.52.79,13.28-1.9,12.53,13,12.56,9.66,0,19.32-.08,29,0,4.83.06,8.18-1.12,7.5-6.89l.15-.14,6.73.88c1,2,1.83,5.75,2.92,5.82,8.27.49,16.6.27,25.69.27v-8.85c1.36-6-3.46-13.78,5.26-17.54-1.6,9.67-3.21,19.33-5,30.16h-85c-1.08-3-3.12-6-3.07-9C169.29,279,166.91,269.67,161,261.33Z"/><path class="cls-10" d="M267.74,83.89c-3.38-.71-7.17-.67-10.07-2.26-19.46-10.66-40.52-8.92-61.22-7.46-15.7,1.11-29.95,7.76-43,16.76-1.34.92-3.67.4-5.54.54,1.13-1.16,2.25-2.33,3.38-3.5l-.06.12,5.3-3.71-.15.15,17.79-9v.25c6-1.4,11.92-3.76,17.94-4,15.11-.62,30.26-.29,45.4-.34l3.28.74Z"/><path class="cls-3" d="M172.18,298.16h85c1.79-10.83,3.4-20.49,5-30.16l5.67-6.19,3-1.7c-.12,1.15.2,2.8-.43,3.36-8.51,7.5-8.86,17.42-8,27.48.58,6.92-1.79,9.11-8.85,9-24.64-.42-49.29-.13-73.93-.26C177.13,299.68,174.66,298.69,172.18,298.16Z"/><path class="cls-3" d="M112.29,181.29l1.17,7.11q1.26,6.87,2.53,13.73l-.25.21c-2.43-5.93-6.52-11.74-7-17.83-1.39-18.32-1.42-36.79,6.88-54,1.31-2.71,3.57-5,5.4-7.41l.19.18C113.37,141.89,109.51,161.08,112.29,181.29Z"/><path class="cls-3" d="M237.51,71.46c-15.14.05-30.29-.28-45.4.34-6,.25-12,2.61-17.94,4,3-1.91,5.69-4.75,8.93-5.56a124.84,124.84,0,0,1,51-1.94C235.37,68.52,236.37,70.37,237.51,71.46Z"/><path class="cls-3" d="M267.74,83.89l-27-11.69c.34-.46.6-1.2,1-1.32,7.15-2,26,6.53,29.3,13.2l-.14.13-3.36-.34Z"/><path class="cls-3" d="M151.3,88c-1.13,1.17-2.25,2.34-3.38,3.5,0,0,.08.48.09.49-1.1.82-2.22,1.63-3.33,2.45a1.1,1.1,0,0,0-1.13,1c-.69.82-1.37,1.65-2.05,2.47l.08-.31c-.64.65-1.27,1.3-1.91,1.94l.16-.15c-.63.67-1.25,1.34-1.88,2l.28-.15-2.34,2-1.17,1.37L130,109.13l-.18-.15C133.41,98.32,140.14,90.88,151.3,88Z"/><path class="cls-10" d="M270.84,260.11l-3,1.71,17.79-18.64-3.17,5.46a.77.77,0,0,0,.54,1.09c-.58.62-1.16,1.22-1.75,1.83l-.33-.42c-1,.77-2.06,1.53-3.1,2.29l.36.31-.33-.35-2.26,3.18a1.18,1.18,0,0,1,.2-.07l-3.52,2.36Z"/><path class="cls-3" d="M124.51,221.82c-8.05-4.18-8.27-11.89-8.77-19.48l.25-.21,8.88,19.38Z"/><path class="cls-3" d="M174.18,75.56l-17.79,9C160.12,77.18,167.18,76.42,174.18,75.56Z"/><path class="cls-3" d="M121,123.14c-1.21-7.29,2.95-11.25,8.79-14.16l.18.15c-.31.91-.62,1.83-.92,2.74h.08l-3.69,5.35.1,0-4.35,6.13Z"/><path class="cls-10" d="M132.63,231.69c5.11-.48,7.7,1.41,6.47,6.89l-4-2.93-.65-.38a1.31,1.31,0,0,0-.28-.09C133.63,234,133.13,232.85,132.63,231.69Z"/><path class="cls-10" d="M143.19,243.38l7.26,7.33Z"/><path class="cls-3" d="M132.63,231.69c.5,1.16,1,2.33,1.51,3.49q-2.31-3-4.63-6l.11-.11a11.51,11.51,0,0,0,1.4.47l-.1-.2,1.79,2.07Z"/><path class="cls-3" d="M156.54,84.38l-5.3,3.71Z"/><path class="cls-3" d="M274.47,86l5.38,3.48-.37.43-5.15-3.73Z"/><path class="cls-3" d="M285.33,83.88l5.57,3.41Z"/><path class="cls-3" d="M129.51,229.17c-1.1-1.26-2.21-2.51-3.32-3.77l.15-.11,3.28,3.77Z"/><path class="cls-3" d="M286.44,95.31l-2.77-1-1.38-1.94L283.6,91Z"/><path class="cls-3" d="M275.58,256.57l2.26-3.18Z"/><path class="cls-10" d="M139.55,238.45l2.23,3.76C141,241,140.29,239.7,139.55,238.45Z"/><path class="cls-10" d="M155.46,254.46l2.33,3.33Z"/><path class="cls-3" d="M277.81,253.43c1-.76,2.08-1.52,3.1-2.29Z"/><path class="cls-3" d="M272.26,258.86l3.52-2.36C274.6,257.28,273.43,258.07,272.26,258.86Z"/><path class="cls-3" d="M279.85,89.51,283.6,91l-1.31,1.41-2.81-2.48Z"/><path class="cls-3" d="M126.19,225.4l-1.68-3.57.36-.32,1.47,3.78Z"/><path class="cls-10" d="M150.47,250.65c1.08.72,2.16,1.44,3.23,2.17C152.61,252.1,151.54,251.38,150.47,250.65Z"/><path class="cls-3" d="M271.13,84.08l3.34,2-.14.18-2.94-.73.09.08c-.16-.45-.32-.9-.49-1.35Z"/><path class="cls-3" d="M280,80.28l3.41.2c.1.55.22,1.09.34,1.62Z"/><path class="cls-10" d="M159,259.29l2.26,1.93Z"/><path class="cls-3" d="M297.71,94.53l1.85,1.86Z"/><path class="cls-3" d="M295.94,92.76l1.86,1.85Z"/><path class="cls-3" d="M299.47,96.3,301.56,98Z"/><path class="cls-3" d="M294.17,91,296,92.85Z"/><path class="cls-3" d="M134.42,235.27l.65.38-1.11,1Z"/><path class="cls-3" d="M292.41,89.25l1.84,1.83Z"/><path class="cls-3" d="M290.78,87.24l1.69,2.07Z"/><path class="cls-3" d="M301.35,97.84l1.93,2Z"/><path class="cls-3" d="M265.89,301.55c-.58.82-1.17,1.63-1.76,2.45C264.72,303.19,265.3,302.37,265.89,301.55Z"/><path class="cls-3" d="M283.58,82.09,285.43,84Z"/><path class="cls-3" d="M281.24,251.56c.59-.61,1.17-1.21,1.75-1.83Z"/><path class="cls-10" d="M153.88,252.6l1.77,1.69C155.05,253.73,154.47,253.17,153.88,252.6Z"/><path class="cls-10" d="M362.51,73.86c-12.73-5.16-25.46-3.27-38.18,0,8.41-7.18,30.3-8.38,38.67-2C363.22,72,362.69,73.17,362.51,73.86Z"/><path class="cls-10" d="M324.47,73.74l-8.61,5.34C316.05,73.71,316.35,73.52,324.47,73.74Z"/><polygon class="cls-2" points="309.13 98.54 308.99 97.78 309.46 97.89 309.13 98.54"/><path class="cls-10" d="M297.85,71.58,299.31,70Z"/><path class="cls-9" d="M285.62,243.18l-17.79,18.64L262.16,268c-8.72,3.76-3.9,11.58-5.26,17.54-7.66.09-16.46,2.46-18.26-9.23-.09-.57-1.93-.88-2.95-1.31q1.62-7.25,3.25-14.51l-.1.12c.63-.68,1.26-1.35,1.9-2l-.18.18,2-1.95-.19.21,1.95-2-.29,0,5.3-5.37.1.28,1.93-1.95,0,.39c.64-.91,1.28-1.82,1.91-2.74l.16-.68.68-.2,4.43-3.53a3.87,3.87,0,0,1,.21-1.51c1.25-7.22-1.62-15.48,5.37-21.26l-.14.06,1.5-1.69c2.6-.07,5.46.53,7.74-.36,4.68-1.81,11.53-1.38,11.54-9.18l0-.15c10.12-4.1,12.36-13.5,14.48-22.56,1-4.45.6-9.4.07-14-1.35-11.88,2.25-21.35,12.4-28.05,1.22,10.71,2.41,21.41,3.68,32.12.4,3.38,1,6.74,1.5,10.11C313.69,208.06,304.44,228.18,285.62,243.18Z"/><path class="cls-10" d="M316.88,184.71c-.5-3.37-1.1-6.73-1.5-10.11-1.27-10.71-2.46-21.41-3.68-32.12-4.84-9.88-9.71-19.73-14.46-29.64-1.2-2.49-2-5.17-3-7.77,18.24,19.86,24.55,43.79,23.8,70.08C318,178.34,317.29,181.52,316.88,184.71Z"/><path class="cls-12" d="M323.85,140.94c6.68,24.08,5.91,47.65-4.78,70.55,1.43-8.32,3.61-16.6,4.1-25,.74-12.71.29-25.49.37-38.24C323.56,145.83,323.75,143.39,323.85,140.94Z"/><path class="cls-2" d="M303,105.28l12,18.34-3.31,1.83L303,105.29Z"/><path class="cls-2" d="M287.05,250.25l5.33-7.82,2.73,2.43L287,250.24Z"/><path class="cls-12" d="M319.22,211.58c-.56,1.72-1.11,3.43-1.66,5.15C318.11,215,318.67,213.3,319.22,211.58Z"/><path class="cls-12" d="M312.64,225.81,308.51,231C309.89,229.28,311.27,227.54,312.64,225.81Z"/><path class="cls-12" d="M315.15,223.56a5,5,0,0,0-1.33.27l1.76-3.41C315.44,221.47,315.29,222.51,315.15,223.56Z"/><path class="cls-10" d="M290.74,101.61l-2.54-2.39Z"/><path class="cls-10" d="M292.5,103.45l-1.86-1.86Z"/><path class="cls-10" d="M294.34,105.19l-1.93-1.83Z"/><path class="cls-10" d="M287.68,98.46l-1.18.78c.24-.39.49-.78.73-1.18Z"/><path class="cls-10" d="M199.91,349.53h39.16c-5.25,10.89-13.12,13.21-21.82,13.81s-16.42-1.72-21.07-9.88c-.54-.95.5-2.8.8-4.24Zm27.85,4.71H200.85C210.06,361.24,219.68,361.94,227.76,354.24Z"/><path class="cls-3" d="M186.61,342.37l66.53,0c-1.56.54-3.12,1.55-4.68,1.56q-29,.11-57.94-.1C189.21,343.78,187.91,342.87,186.61,342.37Z"/><path class="cls-3" d="M199.91,349.53l-2.93-.31,40.45-2.47c0,.93,0,1.86.07,2.78Z"/><path class="cls-7" d="M370.39,321.12c-6.88,7.29-13.75,14.59-21.26,22.56-1-2.61-1.39-3.14-1.31-3.59,2.92-18.52,2.93-18.52-14.8-19.39-1.45-1.08-3-3.21-4.32-3.07-8.8.94-10.22-3.74-9.93-11.13.44-11.07.11-22.18.1-33.28h0l22.73,0,.69,11.83h13.25V271.55H342.1l-14.36-1.5,60.15,0c0,.37,0,.74,0,1.11H370.76v13.94h27.41c.22-4.32.41-8.09.59-11.86,1.66,1.78,4.67,3.5,4.75,5.36.46,10.49.1,21,.25,31.52.08,5.17-2.05,7.51-7.29,7.36a187.62,187.62,0,0,0-19.27.14C374.85,317.78,372.65,319.89,370.39,321.12Zm-42.94-22.31c4.21,3.45,7.8,7.45,8.68,6.93a17.25,17.25,0,0,0,7-8.11c.4-1.07-4.09-5.68-6.27-5.63C334.27,292.06,331.8,295.45,327.45,298.81ZM389.61,291l-3.45-.05c-1.44,2.19-4.36,4.7-4,6.48.6,2.76,3.47,5,5.38,7.49,2-2.39,4.89-4.54,5.59-7.26C393.62,295.85,390.9,293.23,389.61,291Zm-18.93,6.43c-4.54-2.49-7-4.87-9.34-4.78-1.74.07-4.93,3.62-4.68,5.15.44,2.6,3.07,4.85,4.78,7.24Zm-24.86,21.23v-.7h-2.65v.7Z"/><path class="cls-10" d="M370.39,321.12c2.26-1.23,4.46-3.34,6.81-3.53a187.62,187.62,0,0,1,19.27-.14c5.24.15,7.37-2.19,7.29-7.36-.15-10.51.21-21-.25-31.52-.08-1.86-3.09-3.58-4.75-5.36l-10.88-2.08c0-.37,0-.74,0-1.11l6.95-.56h3.66l3.5,1.72c1.69,1.71,4.82,3.42,4.84,5.15.15,14.28-.28,28.56-.54,42.84-7.05.62-14.09,1.39-21.15,1.81C380.23,321.28,375.3,321.09,370.39,321.12Z"/><path class="cls-10" d="M318.87,273.22c0,11.1.34,22.21-.1,33.28-.29,7.39,1.13,12.07,9.93,11.13,1.31-.14,2.87,2,4.32,3.07l-16-3.3-1.7-1.92.15.21c-.07-10.27-.35-20.53-.11-30.79.09-3.88,1.39-7.74,2.13-11.61C318,273.28,318.42,273.26,318.87,273.22Z"/><path class="cls-3" d="M414.16,271.74q0,23.58,0,47.16Q414.18,295.32,414.16,271.74Z"/><path class="cls-3" d="M317.52,273.29c-.74,3.87-2,7.73-2.13,11.61-.24,10.26,0,20.52.11,30.79-.65-5.65-1.66-11.28-1.87-16.95-.32-8.51-.08-17-.08-25.55l3.62-1.74C317.29,272.06,317.4,272.67,317.52,273.29Z"/><path class="cls-3" d="M315.35,315.48l1.7,1.92Z"/><path class="cls-6" d="M410.93,267.82l2.23,1.73Z"/><path class="cls-4" d="M119,32.73c-1.66,1.16-3.31,3.33-5,3.34-29,.2-58.09.14-87.14.09a7.67,7.67,0,0,1-2.3-.85c0-.83,0-1.66,0-2.49h94.49Z"/><path class="cls-3" d="M394.83,269.46l-6.95.56-60.14,0-3.59,0-5.26-.23c1.53-1.13,3.07-3.25,4.59-3.23,22.18.28,44.35.82,66.53,1.42C391.62,268,393.22,269,394.83,269.46Z"/><path class="cls-7" d="M318.89,269.79l5.26.23-5.28,3.21h0c-.45,0-.9.06-1.35.07-.12-.62-.23-1.23-.35-1.84Z"/><path class="cls-3" d="M402,271.19l-3.5-1.72Z"/><path class="cls-3" d="M175.87,330.05l-3.43-2.78a18.22,18.22,0,0,1,3.72-.89q37.13.75,74.23,1.65c1.59,0,3.14,1.05,4.71,1.61Z"/><path class="cls-13" d="M242.59,340.22q-29.55.18-59.09.31c-.43,0-.87-.55-1.31-.84l.8-1.2c17.08.06,34.16.05,51.24.25C237,338.78,239.8,339.71,242.59,340.22Z"/><path class="cls-10" d="M188.42,331.87h52.31c0,.31,0,.61,0,.91H188.3Z"/><path class="cls-13" d="M177.45,308.83l68.82,0c-3.1.51-6.19,1.42-9.29,1.44q-25.12.22-50.26,0C183.63,310.27,180.54,309.34,177.45,308.83Z"/><path class="cls-13" d="M242.63,319l-61.4,0c3.92-.52,7.83-1.46,11.75-1.5,16.6-.17,33.21-.07,49.82-.07h0A5.32,5.32,0,0,1,242.63,319Z"/><path class="cls-3" d="M177.45,321l74.28-.13c-1.54.63-3.08,1.8-4.63,1.81q-32.47.18-65,0C180.57,322.69,179,321.61,177.45,321Z"/><path class="cls-2" d="M370.17,64.71c-15.44-7-31.55-5.87-47.73-3.84.84-1.06,1.69-3,2.53-3,11.94,0,23.91-.26,35.79.65C364,58.74,367,62.54,370.17,64.71Z"/><path class="cls-2" d="M320.6,61l-11.29,2.29Z"/><path class="cls-2" d="M306.17,57.52,310,55.73Z"/><path class="cls-4" d="M333.56,102.72c4-3.64,6.2-7.28,8.65-7.43,2.1-.13,6.54,4.11,6.24,5.74-.62,3.35-3.72,6.24-5.79,9.32Z"/><path class="cls-7" d="M242.63,319a5.32,5.32,0,0,0,.18-1.59l3.85.42L246.6,319Z"/><path class="cls-2" d="M77.62,91.3c.3,4.15.59,8.3.9,12.45.21,2.7,1.71,6.87-3.64,3.16-.5-3.37-1.58-6.8-1.26-10.09C73.81,94.87,76.21,93.14,77.62,91.3Z"/><path class="cls-2" d="M66,61.22l-4.86.71,1.32-2.62,0,0Z"/><path class="cls-4" d="M62.46,59.31l-1.32,2.62-.25-.17c0,1.61-.06,3.21-.09,4.81l.14,0c-7.37,3.68-7.44-1.36-7.56-6.33a1.26,1.26,0,0,1,1.13-1.15Z"/><path class="cls-2" d="M60.8,66.57c0-1.6.05-3.2.09-4.81Z"/><path class="cls-2" d="M137.6,139.13l1.15-1.2,12.08-6.09-2.17-.78L157,107.3a1.23,1.23,0,0,0,1.19-1.07L167,96.58l-.15.07,1.9-1.91-.16.16,3.81-1.72,0,.13c11.41-5.73,22.56-6.92,33.15,1.87l1.26,1.49q1.1,2.68,2.21,5.37.24,3.36.47,6.72l1.41,7.3c-.56,1.57-1.61,3.14-1.62,4.72q-.15,35.75,0,71.49c0,1.56,1.07,3.12,1.65,4.68l-1.92,5.7.15,5q-2.11,5-4.24,10l.13.18-1.73,1.77-.3-.27c-8.74,4.66-17.59,8.45-27.36,2.66l3.49-1.77,9.44,2.51c-1.12-2.72-1.75-4.25-2.37-5.77,7.79-.84,14-5,15-12.47,1.44-10.26,5-21.43-4.34-30.39a.57.57,0,0,0-.69-.58l-.4,0c-8.47-9.59-22.79-10.05-36.13-1.15L149,176.26l-9-4-2.69,1.67,9,22.13.48,0,1.81,1.69v0l1.77,1.71v.54l14.45,5.5-1.71,2.08,5.6,12.5c-2.78-2.22-5.29-5-8.42-6.52-5.15-2.51-10.7-4.21-16.08-6.25l.06.08c-7.19-8.62-13.55-17.75-13.22-29.55.08-3,2.58-6,4-9l1.2.46-1.31-.32C129.63,158.5,130.32,148.51,137.6,139.13Zm7.37,8-1.71,1.75-.43.15c-.25,4.71-2.51,11.34-.28,13.66,3.09,3.21,9.76,4.77,14.52,4.15,5.79-.76,11.19-4.51,16.76-7L202,155.52v-25c-5.92,2-11.27,3.9-16.7,5.54-1.4.42-3.8.55-4.43-.24a4.81,4.81,0,0,1-.19-4.58c1.44-2,3.69-3.51,5.6-5.22,2.37-1,4.77-1.91,7.11-3,10.61-4.8,11.82-10.21,4.51-20l-.25-.31c-7.41-8.58-16.84-7.49-21.49,2.49-.16.62-.33,1.24-.49,1.86l1.2,5.56L174,113.83l-5.45.84c-.86-1.78-1.72-3.56-2.69-5.55-13.16,15.62-9.71,26.69,10.6,40.64-5.95,4.54-10.26-.3-14.94-2.09-4.32-4.11-8.54-8.81-14.74-2.7l0,.4L145,147.18Z"/><path class="cls-2" d="M293.86,165.28l1.83,5.47A49.1,49.1,0,0,1,294,178c-2.77,7-5.79,14-8.71,20.94h0q3.27-11.13,6.53-22.26l-2.06-.6c-.78,1.73-1.57,3.47-2.35,5.21-.2-2.26-.39-4.51-.69-8-7.17,2.87-13.6,2.33-19.09-2.69l10.55-3.39c.48-.33,1-.65,1.44-1,8.31-6,10.09-12.08,5.55-18.81-6-8.88-11.59-4.19-17.51.2-4.62,3.42-9.7,5.49-15.17,2.49l11.4-9.58a1.64,1.64,0,0,0,.71-1.32l-.14,0,3.63-5.45-.19.05c4.93-11,1.7-17.37-9.28-18.37q-4.25-6.18-8.5-12.37l-1.62-1.77v.09c-5.51-5.18-11-5.17-16.63-.12l-.17-.11c-7.29,3.79-7.39,10.42-6.65,17.26.78,7.31,7.5,4.59,11.45,6.57,3.29,1.64,6.53,3.39,9.79,5.09l-3.51,7.23c-.55-.12-1.1-.26-1.64-.42l.08.08-16.14-6.89V164.4h2.21q.71-4.71,1.39-9.4l3.51.41c1,1.55,1.65,4.08,3,4.45,4.2,1.19,8.62,1.58,13,2.27-3.88,1.48-7.71,1.67-11.27,2.76-13.76,4.23-15.91,6.42-15,20.4.67,10.52,3.34,20.91,5.12,31.35h0l-3.83.22.09.08c-1.11-10.72-2.83-21.42-3.18-32.16-.54-16.77,0-33.57-.31-50.35,0-2.66-2-5.29-3.12-7.93v-3.59c1.08-1.44,2.92-2.79,3.1-4.33.8-6.89,1.12-13.83,1.61-20.75l-.11.12c.65-.67,1.29-1.34,1.94-2l-.18.19,2-1.91-.14.13L241,89.55c8.4,1.63,14.87,6.19,20.53,12.5,2.56,2.86,6.35,4.6,9.59,6.85,7.23,7.73,7.23,7.73,7.14,23.43l7.18,3.74,2.35,2.14-.39.2c.63.64,1.27,1.27,1.9,1.89l-.16-.09,1.94,1.85.13-.09Q292.51,153.63,293.86,165.28Z"/><path class="cls-2" d="M264.13,218.44c-7,5.78-4.12,14-5.37,21.26l-.94-2.28-10.69,13.24-.29-.13-2,2,.13.28c-3.37,2.65-7.89,4.64-9.87,8.08-4.21,7.36-7.11,15.47-10.88,24-.29-5.53-.54-10.33-.8-15.13l.45-3.19-.21-.11q1.16-2.49,2.32-5a1,1,0,0,0,.18-.05c1-1.27,1.92-2.54,2.88-3.81l-.12,0,7.32-8.66-.2,0,1.9-2-.27.12,2.41-1.93L243,242.3c.65-.83,1.29-1.66,1.93-2.5l-.08.3c.65-.64,1.3-1.26,2-1.89l0,.17c6.53-3.28,4.54-9.28,4.67-14.6,0-.61.07-1.22.11-1.83l.4-.75c-.12.26-.25.52-.38.77-8.37-1.26-18,3.6-24.77-5.31h0c3.63.94,7.22,2.36,10.9,2.62,2.17.15,4.47-1.55,6.71-2.41l5.74-3.35-.09.05,1.91-2-.12.1c4.37-5.5,5.29-11,.12-16.61l0,.06-2-1.84.13.09-3.09-2q.41-3.07.8-6.15c3.84,1.06,8.14,1.37,11.37,3.39s5.27,5.7,8.32,9.22v8.24l12.69,3.63c-4.92,1.23-9.9,2.3-14.76,3.77-1.68.51-3.08,2-4.61,3Z"/><path class="cls-10" d="M251.55,223.78c-.13,5.32,1.86,11.32-4.67,14.6.26-2.54.53-5.07.88-8.49-15.34-1-28.25-6-33.49-21.41-3,3-6.17,6.07-9.35,9.17,1.41-3.35,2.83-6.68,4.24-10l-.15-5,1.92-5.69q0-40.46-.05-80.9l-1.41-7.3q-.22-3.36-.47-6.72-1.11-2.69-2.21-5.37l7.26,4.86c13.45-20.69,35.11-21.42,50.2-1.2,2.18,2.93,4.55,5.72,6.83,8.57-3.24-2.25-7-4-9.59-6.85-5.66-6.31-12.13-10.87-20.52-12.5l-16.18,4.83.14-.13-2,1.91.18-.19-1.94,2,.11-.12c-6.63,7.41-4.68,16.43-4.71,25.08v3.59c-.09,24.65-.59,49.32.05,74,.15,5.55,4.27,11,6.56,16.48l-.09-.08C231,225.79,240.64,227.36,251.55,223.78Z"/><path class="cls-6" d="M179.15,220.21,175.66,222q2.52,8.34,5.05,16.68l3,3,4.1,4a11.7,11.7,0,0,1,0,1.18l2.49,3.11-.3-.1,2,2-.24-.2,2,2-.1-.19,2.1,3.52-.08-.29,3.5,3.91-.3-.09,1.82,2.05-.11-.15L202.6,266l-.14-.19,2,3.64h-.29c.27,5,.54,10,.87,16.15l-6.78-11.75L190.11,264h.1q-2.6-2.75-5.18-5.5l.07-.08-9.27-10.78a1.16,1.16,0,0,0-1.05-1.09l-2.61-2.68L167,232.52c5.77-2.68,3.4-6.63,1.63-10.49,0-.63,0-1.25,0-1.88l-5.6-12.5,1.71-2.08c0-1,.09-2,.14-3a61.55,61.55,0,0,1,2.21-7c1.68-3.76,3.92-6.65,8.36-3a1,1,0,0,1-.74.65l-1.47-.36,1.29,1-2.37,5.35-1.59-2.5c-3.65,3.2-1.52,12.26,3.43,14.57l-.06-.06q2.59,4.49,5.21,9Z"/><path class="cls-3" d="M280.32,209.75l-12.69-3.63c13.88-2.45,16.8-13.64,19.76-24.79.78-1.74,1.57-3.48,2.35-5.21l2.06.6q-3.27,11.13-6.53,22.26l-1.75,3.54-.44.73c.13-.25.27-.5.41-.75l1.78-3.53c2.92-7,5.94-13.91,8.71-20.94a49.1,49.1,0,0,0,1.71-7.28c3.88,14.39-2.69,25.64-10.95,36.37l0,.16Z"/><path class="cls-10" d="M135,168.89c-1.39,3-3.89,6-4,9-.33,11.8,6,20.93,13.22,29.55-11.7-5.06-15.07-15.83-16-26.69s.27-21.92,1.76-32.74c.45-3.25,5-5.95,7.62-8.91-7.28,9.39-8,19.38-2.74,29.91Z"/><path class="cls-10" d="M121.23,123.32l4.35-6.13c-.4,2.5-.3,5.22-1.27,7.47-7.33,17-12.49,34.3-9.24,53.15.16,1-1.81,2.31-2.78,3.48C109.51,161.08,113.37,141.89,121.23,123.32Z"/><path class="cls-10" d="M189,247.12c.86,0,1.89-.38,2.57-.05,9.17,4.5,20.78,25.9,19.3,35.95-.23,1.57-2,2.91-3.13,4.35q-1.78-9-3.58-17.92h.29l-2-3.64.14.19c-.7-1.2-1.39-2.4-2.08-3.61l.11.15-1.82-2.05.29.09c-1.16-1.3-2.33-2.6-3.49-3.91l.08.29c-.71-1.17-1.4-2.35-2.1-3.52l.1.19-2-2,.24.2-2-2,.3.1Q189.63,248.53,189,247.12Z"/><path class="cls-10" d="M126.34,225.29l-1.47-3.78L116,202.13q-1.27-6.85-2.53-13.73c.75.44,2,.7,2.21,1.34,5.18,13.23,10.25,26.51,15.35,39.78a10,10,0,0,1-1.4-.46Z"/><path class="cls-10" d="M157,107.3l-8.34,23.76,2.17.78-12.08,6.09c0-.86-.24-2.34.11-2.5,9.37-4.32,7.87-13.83,10.71-21.36C150.62,111.28,154.44,109.53,157,107.3Z"/><path class="cls-10" d="M180.71,238.66q-2.53-8.34-5.05-16.68c9.77,5.79,18.62,2,27.36-2.66-1,7.69-7.73,6.67-12.67,7.82-3.25.75-6.82.14-10.77.14C180,231.87,180.37,235.26,180.71,238.66Z"/><path class="cls-10" d="M205.53,95.18c-10.59-8.79-21.74-7.6-33.15-1.87,4.24-9.81,13.21-7.16,20.68-7.31C198.9,85.89,204.28,88.19,205.53,95.18Z"/><path class="cls-10" d="M168.66,220.15V222l-2.07,8.69c-1-2-3.2-4.41-2.68-5.83,2.33-6.22-.95-7.09-5.87-8.73-5.1-1.7-13.29.35-13.9-8.77,5.39,2,10.94,3.73,16.09,6.24C163.37,215.15,165.88,217.93,168.66,220.15Z"/><path class="cls-3" d="M204.17,269.45q1.79,9,3.58,17.92c-12.09,2.87-7.53-7.44-9.79-12.36a5.82,5.82,0,0,0,.3-1.16L205,285.6C204.71,279.46,204.44,274.45,204.17,269.45Z"/><path class="cls-3" d="M293.86,165.28q-1.35-11.65-2.69-23.31C298.52,149,296.93,157.05,293.86,165.28Z"/><path class="cls-10" d="M223.91,266.57l-.45,3.19q-.94,8.83-1.9,17.66l-.15.14C215.93,281.8,217.29,270.4,223.91,266.57Z"/><path class="cls-10" d="M271.39,85.48l2.94.73,5.15,3.73,2.81,2.48,1.38,1.94C277.14,94.78,272.93,92,271.39,85.48Z"/><path class="cls-10" d="M167,96.58l-8.82,9.65Z"/><path class="cls-10" d="M198.26,273.85A5.82,5.82,0,0,1,198,275l-7.85-11Q194.19,268.94,198.26,273.85Z"/><path class="cls-2" d="M166.6,230.72l2.07-8.69c1.77,3.86,4.14,7.81-1.63,10.49C166.9,231.92,166.75,231.32,166.6,230.72Z"/><path class="cls-10" d="M175.83,247.67l9.27,10.78Z"/><path class="cls-10" d="M236.28,249,229,257.65C229.61,253.25,230,248.59,236.28,249Z"/><path class="cls-10" d="M129.09,111.87l.92-2.74,4.71-4.49Z"/><path class="cls-10" d="M185,258.53q2.58,2.76,5.18,5.5Z"/><path class="cls-10" d="M229.08,257.62c-1,1.27-1.93,2.54-2.88,3.81C227.17,260.16,228.12,258.89,229.08,257.62Z"/><path class="cls-10" d="M125.48,117.23l3.69-5.35Z"/><path class="cls-3" d="M189,247.12q.62,1.41,1.26,2.82l-2.49-3.11A3.46,3.46,0,0,0,189,247.12Z"/><path class="cls-10" d="M187.81,245.65l-4.1-4Z"/><path class="cls-10" d="M226,261.48q-1.17,2.49-2.32,5Q224.86,264,226,261.48Z"/><path class="cls-10" d="M172.41,93.18,168.6,94.9Z"/><path class="cls-10" d="M144.68,94.41c1.11-.82,2.23-1.63,3.33-2.45C146.89,92.77,145.79,93.59,144.68,94.41Z"/><path class="cls-10" d="M271,84.21c.17.45.33.9.49,1.35l-3.85-1.69Z"/><path class="cls-3" d="M287.75,138.21l-2.35-2.14Z"/><path class="cls-10" d="M138,101.4c.63-.66,1.25-1.33,1.88-2Z"/><path class="cls-10" d="M141.5,97.92c.68-.82,1.36-1.65,2.05-2.47C142.86,96.27,142.18,97.09,141.5,97.92Z"/><path class="cls-10" d="M135.89,103.27l2.34-2Z"/><path class="cls-10" d="M139.67,99.55c.64-.64,1.27-1.29,1.91-1.94Z"/><path class="cls-10" d="M168.76,94.74l-1.9,1.91Z"/><path class="cls-10" d="M203.32,219.59l1.73-1.77C204.47,218.4,203.9,219,203.32,219.59Z"/><path class="cls-10" d="M132.71,231.4l-1.79-2.07Z"/><path class="cls-10" d="M246.84,238.21c-.66.63-1.31,1.25-2,1.89Z"/><path class="cls-10" d="M172.17,243.9l2.61,2.68Z"/><path class="cls-10" d="M240.12,245.17l-2.41,1.93Z"/><path class="cls-10" d="M238,247l-1.9,2Z"/><path class="cls-10" d="M245,239.8c-.64.84-1.28,1.67-1.93,2.5C243.68,241.47,244.32,240.64,245,239.8Z"/><path class="cls-3" d="M289.26,140.3c-.63-.62-1.27-1.25-1.9-1.89Z"/><path class="cls-3" d="M291,142.06l-1.94-1.85Z"/><path class="cls-7" d="M235.68,275c1,.43,2.87.74,3,1.31,1.8,11.69,10.6,9.32,18.26,9.23v8.85c-9.09,0-17.42.22-25.69-.27-1.09-.07-2-3.79-2.92-5.82l1.36-1.17,2.59-3.27Q234,279.44,235.68,275Z"/><path class="cls-3" d="M229.65,287.13l-1.36,1.17-6.73-.88q.94-8.84,1.9-17.66c.26,4.8.51,9.6.8,15.13,3.77-8.56,6.67-16.67,10.88-24,2-3.44,6.5-5.43,9.87-8.08L244,255l.29.06-1.95,2,.19-.21-2,1.95.18-.18-1.9,2,.1-.12-8,19.82c-.06,1.19-.13,2.37-.19,3.56C230.36,285,230,286,229.65,287.13Z"/><path class="cls-7" d="M280.32,209.75l4.46-2.47c0,7.79-6.87,7.36-11.55,9.17-2.28.89-5.14.29-7.74.36L264,218.5l.14-.06L261,216.56c1.53-1,2.93-2.53,4.61-3C270.42,212.05,275.4,211,280.32,209.75Z"/><path class="cls-10" d="M230.9,280.31l8-19.82q-1.62,7.26-3.25,14.51l-3.45,8.86-.05-.05Z"/><path class="cls-3" d="M247.13,250.66l10.69-13.24.94,2.28a3.87,3.87,0,0,0-.21,1.51l-4.43,3.53-.68.2-.16.68-1.91,2.74,0-.39-1.93,1.95s-.1-.28-.09-.28Z"/><path class="cls-10" d="M247.13,250.66l2.18-1L244,255c.34-.75.67-1.49,1-2.23l-.13-.28,2-2Z"/><path class="cls-10" d="M254.12,244.74l4.43-3.53Z"/><path class="cls-10" d="M240.56,258.77l2-1.95Z"/><path class="cls-10" d="M238.84,260.61l1.9-2C240.1,259.26,239.47,259.93,238.84,260.61Z"/><path class="cls-2" d="M264,218.5l1.5-1.69Z"/><path class="cls-10" d="M251.37,248.36l1.91-2.74C252.65,246.54,252,247.45,251.37,248.36Z"/><path class="cls-10" d="M249.4,249.92l1.93-1.95Z"/><path class="cls-10" d="M242.34,257l1.95-2Z"/><path class="cls-7" d="M227.76,354.24c-8.08,7.7-17.7,7-26.91,0Z"/><path class="cls-6" d="M327.45,298.81c4.35-3.36,6.82-6.75,9.38-6.81,2.18-.05,6.67,4.56,6.27,5.63a17.25,17.25,0,0,1-7,8.11C335.25,306.26,331.66,302.26,327.45,298.81Z"/><path class="cls-6" d="M389.61,291c1.29,2.25,4,4.87,3.55,6.66-.7,2.72-3.61,4.87-5.59,7.26-1.91-2.47-4.78-4.73-5.38-7.49-.39-1.78,2.53-4.29,4-6.48Z"/><path class="cls-6" d="M370.68,297.41,361.44,305c-1.71-2.39-4.34-4.64-4.78-7.24-.25-1.53,2.94-5.08,4.68-5.15C363.69,292.54,366.14,294.92,370.68,297.41Z"/><path class="cls-10" d="M342.1,271.55a4.21,4.21,0,0,1-.5,1.66l-22.73,0,5.28-3.21,3.59,0Z"/><path class="cls-10" d="M345.82,318.64h-2.65v-.7h2.65Z"/><path class="cls-7" d="M174,113.83l2.84-1.21-1.2-5.56c.16-.62.33-1.24.49-1.86,6.74-4.45,13.79-6.3,21.49-2.49,0,0,.25.31.24.31-.13,1.1-.66,2.36-.32,3.28,2.88,7.68,1,12.64-7.39,14.89-1.62.44-2.62,3.14-3.9,4.8-1.91,1.71-4.16,3.18-5.6,5.22a4.81,4.81,0,0,0,.19,4.58c.63.79,3,.66,4.43.24,5.43-1.64,10.78-3.55,16.7-5.54v25l-28.12,4.39c-5.33,1.25-10.82,2-16,3.85-8.84,3.12-13.53.43-14.11-8.71-.13-2-.62-4-.94-6,0,0,.43-.15.44-.14.57-.58,1.13-1.17,1.7-1.76l.07,0,1.69-1.82s0-.4,0-.39l14.73,2.69c4.68,1.79,9,6.63,14.94,2.09-20.31-13.95-23.76-25-10.6-40.64,1,2,1.83,3.77,2.69,5.55l.27,2.8Z"/><path class="cls-7" d="M172.19,199.18l2.37-5.35.18-.64a1,1,0,0,0,.72-.65l7.56-3.33c.08-.74.16-1.49.25-2.24-2.55-.69-5.18-2.19-7.62-1.92-7.13.8-11.07,5.54-12.89,12.24l-12.44,2.78s0-.54,0-.55l-1.78-1.7a.21.21,0,0,1,0-.06c-.6-.57-1.21-1.12-1.82-1.68,0,0-.48,0-.46,0-.75-2.61-1.2-5.37-2.32-7.81-2.78-6-2.46-10.44,5.06-12l10.66-3.94c.67.48,1.67,1.52,2,1.35,11.38-6.41,22.75-5.68,34.16-.2,0,0,.4,0,.39.05q-.24.67-.45,1.35l1.15-.78c9.36,9,5.78,20.13,4.34,30.39-1.06,7.51-7.23,11.63-15,12.47l-3.51-.26-8.74-5.5.06.06Q173.1,205.22,172.19,199.18Z"/><path class="cls-12" d="M210.88,116.06q0,40.45.05,80.9c-.58-1.57-1.64-3.13-1.65-4.69q-.17-35.75,0-71.49C209.27,119.2,210.32,117.63,210.88,116.06Z"/><path class="cls-10" d="M142.83,149.07c.32,2,.81,4,.94,6,.58,9.14,5.27,11.83,14.11,8.71,5.13-1.81,10.62-2.6,16-3.85-5.57,2.46-11,6.21-16.76,7-4.76.62-11.43-.94-14.52-4.15C140.32,160.41,142.58,153.78,142.83,149.07Z"/><path class="cls-10" d="M195.81,173.47c-11.41-5.48-22.78-6.21-34.16.2-.3.17-1.3-.87-2-1.35C173,163.42,187.34,163.88,195.81,173.47Z"/><path class="cls-10" d="M186.23,126c1.28-1.66,2.28-4.36,3.9-4.8,8.38-2.25,10.27-7.21,7.39-14.89-.34-.92.19-2.18.32-3.28,7.32,9.79,6.11,15.2-4.5,20C191,124.08,188.6,125,186.23,126Z"/><path class="cls-10" d="M149,176.26c-7.52,1.53-7.84,6-5.06,12,1.12,2.44,1.57,5.2,2.32,7.81q-4.51-11.06-9-22.12l2.69-1.67Z"/><path class="cls-10" d="M197.6,102.71c-7.7-3.81-14.75-2-21.49,2.49C180.76,95.22,190.19,94.13,197.6,102.71Z"/><path class="cls-10" d="M150.32,200.07l12.44-2.78,2.15,5.24c0,1-.1,2-.14,3Z"/><path class="cls-10" d="M161.5,147.67,146.77,145C153,138.86,157.18,143.56,161.5,147.67Z"/><path class="cls-6" d="M182.71,216.69l3.51.26c.62,1.52,1.25,3.05,2.37,5.77l-9.44-2.51,0-.05Z"/><path class="cls-10" d="M174,113.83l-5.18,3.64-.27-2.8Z"/><path class="cls-10" d="M175.62,107.06l1.2,5.56Z"/><path class="cls-12" d="M209,102q.24,3.36.47,6.72Q209.25,105.4,209,102Z"/><path class="cls-12" d="M209,202.65l.15,5Z"/><path class="cls-10" d="M134.86,169l1.31.32-1.2-.46Z"/><path class="cls-10" d="M196.9,174.09l-1.15.78q.21-.68.45-1.35A.56.56,0,0,1,196.9,174.09Z"/><path class="cls-10" d="M146.74,196.08c.61.56,1.22,1.11,1.82,1.68Z"/><path class="cls-10" d="M148.54,197.82l1.78,1.7C149.72,199,149.13,198.39,148.54,197.82Z"/><path class="cls-10" d="M146.73,145.37,145,147.19Z"/><path class="cls-10" d="M145,147.17c-.57.59-1.13,1.18-1.7,1.76C143.83,148.34,144.4,147.75,145,147.17Z"/><path class="cls-7" d="M263.87,140.6l-11.4,9.58c5.47,3,10.55.93,15.17-2.49,5.92-4.39,11.54-9.08,17.51-.2,4.54,6.73,2.76,12.83-5.55,18.81-.47.34-1,.66-1.44,1-5-1.22-10.06-2.38-15.05-3.68-10.32-2.69-20.63-5.46-30.94-8.19l-3.51-.41c-.38-6.29-.76-12.58-1.15-19.09L241.2,137l-.08-.08,1.64.42,3.51-7.23c-1.4-2.19-2.3-5.5-4.28-6.39-14.74-6.62-14.81-6.47-10.13-21.69.07-.24-.11-.56-.18-.84l.17.12,16.63.11v-.09c.15.87.32,1.74.48,2.62l1.14-.85q4.25,6.19,8.5,12.37c7.32,4,10.16,10.25,9.28,18.37l.19-.05c-1.22,1.81-2.42,3.63-3.63,5.45h.14C264.34,139.71,264.1,140.15,263.87,140.6Z"/><path class="cls-7" d="M287.39,181.33c-3,11.15-5.88,22.34-19.76,24.79v-8.24c-3.05-3.52-5.14-7.24-8.32-9.22s-7.53-2.33-11.37-3.39q-.39,3.07-.8,6.16l3.09,1.94-.13-.09,2,1.84,0-.06L252,211.67l.12-.1-1.91,2,.08-.05-16.7.73-.58-.41-1.43-1.39-.62-.16c-3.73-12.52-3.34-25.29-2.29-38.09l5.9-4.56.45-.37,4.12,1.18.21-1.25-4-.27c11-3.65,21.81-3.91,32.3,1.76,5.49,5,11.92,5.56,19.09,2.69C287,176.82,287.19,179.07,287.39,181.33Z"/><path class="cls-3" d="M267.61,170.68c-10.49-5.67-21.3-5.41-32.3-1.76l-.32.34s-.45.37-.44.38l-5.91,2.8-1.68.94c-.44,10.49-1.23,21-1.06,31.47,0,2.5,3.27,5,5,7.43a6.4,6.4,0,0,0,.63.14c.48.46.95.93,1.42,1.41,0,0,.58.41.59.4l11,2.63c-2.24.86-4.54,2.56-6.71,2.41-3.68-.26-7.27-1.68-10.9-2.62-1.78-10.44-4.45-20.83-5.12-31.35-.9-14,1.25-16.17,15-20.4,3.56-1.09,7.39-1.28,11.27-2.76-4.34-.69-8.76-1.08-13-2.27-1.3-.37-2-2.9-3-4.45,10.31,2.73,20.62,5.5,30.94,8.19,5,1.3,10,2.46,15.05,3.68Z"/><path class="cls-3" d="M223.17,217c-2.29-5.49-6.41-10.93-6.56-16.48-.64-24.64-.14-49.31-.05-74,1.09,2.64,3.08,5.27,3.12,7.93.3,16.78-.23,33.58.31,50.35C220.34,195.54,222.06,206.24,223.17,217Z"/><path class="cls-10" d="M231.68,101.21c.07.28.25.6.18.84-4.68,15.22-4.61,15.07,10.13,21.69,2,.89,2.88,4.2,4.28,6.39-3.26-1.7-6.5-3.45-9.79-5.09-3.95-2-10.67.74-11.45-6.57C224.29,111.63,224.39,105,231.68,101.21Z"/><path class="cls-10" d="M241.2,137l-13.69-1.1c.39,6.51.77,12.8,1.15,19.09q-.69,4.69-1.39,9.4h-2.21V130.13Z"/><path class="cls-3" d="M251.55,223.78c-10.91,3.58-20.58,2-28.47-6.9l3.83-.22c6.73,8.91,16.4,4.05,24.77,5.31l0,0C251.62,222.56,251.59,223.17,251.55,223.78Z"/><path class="cls-3" d="M216.55,122.93c0-8.65-1.92-17.67,4.71-25.08-.49,6.92-.81,13.86-1.61,20.75C219.47,120.14,217.63,121.49,216.55,122.93Z"/><path class="cls-10" d="M267.88,133.86c.88-8.12-2-14.38-9.28-18.37C269.58,116.49,272.81,122.88,267.88,133.86Z"/><path class="cls-10" d="M248.48,101.44l-16.63-.11C237.43,96.27,243,96.26,248.48,101.44Z"/><path class="cls-3" d="M224.79,94.38,241,89.55Z"/><path class="cls-10" d="M264.44,139.26c1.21-1.82,2.41-3.64,3.63-5.45Z"/><path class="cls-10" d="M250.1,103.12,249,104c-.16-.88-.33-1.75-.48-2.62Z"/><path class="cls-3" d="M221.15,98l1.94-2C222.44,96.63,221.8,97.3,221.15,98Z"/><path class="cls-3" d="M222.91,96.16l2-1.91Z"/><path class="cls-10" d="M242.76,137.36l-1.64-.42C241.66,137.1,242.21,137.24,242.76,137.36Z"/><path class="cls-10" d="M263.87,140.6c.23-.45.47-.89.71-1.33A1.65,1.65,0,0,1,263.87,140.6Z"/><path class="cls-10" d="M252,211.67l.12-16.61C257.26,200.63,256.34,206.17,252,211.67Z"/><path class="cls-10" d="M244.53,216.86l-11-2.63,16.69-.72Z"/><path class="cls-10" d="M250.23,193.37l-3.09-1.94Z"/><path class="cls-10" d="M252.14,195.12l-2-1.84Z"/><path class="cls-10" d="M250.18,213.56l1.91-2Z"/><path class="cls-3" d="M251.68,222c.13-.25.26-.51.38-.77l-.4.75Z"/><path class="cls-3" d="M246.85,250.53l-2,2Z"/><path class="cls-2" d="M164.91,202.53l-2.15-5.24c1.82-6.7,5.76-11.44,12.89-12.24,2.44-.27,5.07,1.23,7.62,1.92-.09.75-.17,1.5-.25,2.24l-7.56,3.33c-4.42-3.68-6.66-.79-8.34,3A61.55,61.55,0,0,0,164.91,202.53Z"/><path class="cls-2" d="M172.19,199.18q.92,6,1.84,12.07c-4.95-2.31-7.08-11.37-3.43-14.57Z"/><path class="cls-2" d="M182.71,216.69l-3.53,3.47q-2.61-4.49-5.21-9Z"/><path class="cls-3" d="M195.61,256.67c1.16,1.31,2.33,2.61,3.49,3.91Z"/><path class="cls-3" d="M200.52,262.39c.69,1.21,1.38,2.41,2.08,3.61C201.9,264.8,201.21,263.6,200.52,262.39Z"/><path class="cls-3" d="M202.46,265.81l2,3.64Z"/><path class="cls-3" d="M193.59,253.44c.7,1.17,1.39,2.35,2.1,3.52Z"/><path class="cls-3" d="M198.81,260.49l1.82,2.05C200,261.85,199.42,261.17,198.81,260.49Z"/><path class="cls-2" d="M174.74,193.19l-.18.64-1.29-1Z"/><path class="cls-3" d="M190,249.84l2,2Z"/><path class="cls-3" d="M191.71,251.63l2,2Z"/><path class="cls-2" d="M283.52,202.52l1.75-3.54h0l-1.78,3.53Z"/><path class="cls-2" d="M283.49,202.5c-.14.25-.28.5-.41.75l.44-.73Z"/><path class="cls-10" d="M229.65,287.13c.35-1.09.71-2.17,1.06-3.26l1.48-.06.05.05Z"/><path class="cls-7" d="M232.19,283.81l-1.48.06c.06-1.19.13-2.37.19-3.56Z"/><path class="cls-10" d="M230.93,212.28c-1.76-2.48-5-4.93-5-7.43-.17-10.48.62-21,1.06-31.47a2,2,0,0,0,1.24.35l.44.46C227.59,187,227.2,199.76,230.93,212.28Z"/><path class="cls-10" d="M228.64,172.44l5.91-2.8-5.91,4.55-.44-.46Z"/><path class="cls-10" d="M235,169.26l.32-.34,4,.27-.21,1.25Z"/><path class="cls-10" d="M233,213.83c-.47-.48-.94-1-1.42-1.41C232,212.9,232.5,213.37,233,213.83Z"/><path class="cls-2" d="M228.64,172.44l-.44,1.29a2,2,0,0,1-1.24-.35Z"/></svg>