<svg id="Layer_1" data-name="Layer 1" xmlns="http://www.w3.org/2000/svg" viewBox="0 0 447.76 426.83"><defs><style>.cls-1{fill:#fddc5b;}.cls-2{fill:#f9c959;}.cls-3{fill:#fad15b;}.cls-4{fill:#fefdfb;}.cls-5{fill:#fefefe;}</style></defs><path class="cls-1" d="M268.48,81.74q-7.29,15.53-14.58,31.1c25.56,9.83,35.14,23.61,29,40.93-8.29,23.43-22,28.6-50.92,19-10,18.31-20,36.72-30.15,55-8.18,14.67-8.3,14.58-25.17,10.46a13.5,13.5,0,0,0-3.44-.29c1,4.18,4.11,9.5,2.6,12.45-3,5.88-8.87,8.94-16.43,6.17-6.54-2.4-13.46-3.74-20.09-5.9-6.43-2.09-9.39-6.58-7.62-13.43,1.86-7.24,6.84-8.68,13.42-6.9l5.73,2.59L167,239l1.29-3.82L152.45,231l-5.81-2.48c-4.66-2-9.22-4.28-14-6-8.18-2.89-9-7.32-5-14.8,23.58-44,46.81-88.16,70.16-132.27l1.26-1.89,0,.05,2-2.27-.25-.15,8.81,13.38q-8.73,17.73-17.44,35.47l-1.51,2.58c-.52.43-1.25.75-1.54,1.3-12.15,23.22-24.39,46.41-36.14,69.83-.84,1.68,1.3,6.83,3.14,7.53a248.41,248.41,0,0,0,30.12,9.43c2.85.68,8.32-1,9.47-3.19,8.33-16,16.35-32.12,23.47-48.65,5.2-12.09,7.75-25.38,13.47-37.17,10.54-21.69,11.16-21.39-8.91-33.42.92-1.47,1.51-3.53,2.84-4.28,3-1.7,6.34-2.75,9.54-4.06,6,.79,12.07,8.46,17.92-.25Zm.53,64.75c0-9.6-7.3-17-17.15-17.18-5.74-.14-16.58,14.34-17.05,22.77-.35,6.13,7.47,11.79,16.54,12C262.43,164.27,269,157.77,269,146.49Z"/><path class="cls-1" d="M330.37,207c1.65,16.83,5.26,33.75,4.49,50.46-1.31,28.06-16,48.6-41.64,61-2.18,1-3.69,3.48-7.69,7.42-7.94.19-8.41.93-7.38,13.27,1.73,20.71-.17,17.1,19.58,17.68,6,.18,12.4.47,17.92,2.54,2.81,1.05,4.09,6.19,6.05,9.48-2.89,1.38-5.77,4-8.67,4q-84.64.38-169.3,0c-2.74,0-7.45-2.53-7.72-4.38-.37-2.58,1.91-6.79,4.3-8.21a26.8,26.8,0,0,1,12.42-3.38c12.94-.41,25.9-.15,38.77-.15.44-8.49,2-16.35,1-23.9-2.86-22.65,23-40.91,47.58-36.33,12.88,2.39,24.91,9.38,40,15.35,50.54-21.69,49.27-72,27.08-107.5.82,4.55,1.65,9.09,2.5,13.77-8.65-.28-11.17-2.68-16.07-15.59L305,199.76l2.05.83-.81-2.06c-6-8.54-12.19-17-18.06-25.66-4.43-6.51-4.46-13,2.95-21.53l39.41,55.78ZM205.74,356.12h59.74c-2.63-14.24,4-30.58-11.29-39.59-10.73-6.31-23.65-11.55-35.77-3.87C202.58,322.69,204.3,339.21,205.74,356.12Z"/><path class="cls-2" d="M94.16,354.2c-23.26,6-46.29,8.5-68.8-3.24-18-9.41-25.69-25.52-18-44.42,5.14-12.7,13.52-24.09,21.08-37.17l-17.91-9,20.7-2.72-6.84-16.54c1.59-.12,2-.29,2.21-.15,5.71,3.87,11.81,11.32,17,10.72,5.81-.68,10.62-8.8,16.15-13.34,16.47-13.52,33.08-26.87,49.63-40.28l3.62,3.61c-3.2,3.85-6.06,8-9.64,11.5q-22.8,22-46,43.64c-5.82,5.39-6.15,9.74-.12,15.23,3.14,2.85,5,7.07,7.5,10.67l-2.07,1.82c-3-1.32-6.74-1.9-8.81-4.08-8.71-9.23-14.84-5.4-20,3.45-5.41,9.3-11.79,18.35-15.3,28.37-4.43,12.64,1.17,22.52,13.38,28.08,15.81,7.19,32.47,7.06,49.27,5.38,3.74-.38,7.45-.9,11.17-1.36L86.1,351Z"/><path class="cls-2" d="M367.13,152.48c15.79-19.57,27.8-41.25,32.75-66,2.7-13.5-3-19.6-17.07-20.85-18.43-1.65-36,2.64-52.43,10.58-3.15,1.51-4.47,6.8-7,10.9L304,85.66l-2.52-2c12.36-5.05,12-14.05,7.88-26.15,21.92,15.92,37.95-3.85,56.24-3.23,7.08.23,14.42-1.75,21.27-.55,20.35,3.57,30.24,19.4,24.89,40.43-2.74,10.78-7.22,21.29-12.1,31.35a298.35,298.35,0,0,1-53.25,75.87c-3.5,3.66-10.6,3.87-16,5.67l.12.11c1.44-3.61,2.23-7.69,4.45-10.74,9.61-13.24,19.63-26.18,29.5-39.22Q365.78,154.82,367.13,152.48Z"/><path class="cls-2" d="M102.17,161.35c-12.26-16.58-25-32.82-36.56-49.88-5.06-7.46-8.55-16.32-11.17-25C50,71.69,57.41,59.9,72.65,56.94c33-6.4,62,3.65,89.3,20.49l-.69,3.77c-4.17-.77-8.33-1.53-12.49-2.32-20-3.81-40-7.73-60-11.32a28.27,28.27,0,0,0-10.18.52c-10.28,2-15.43,8-11.23,17.33,7.47,16.56,17.31,32.08,26.44,47.87,3.23,5.59,7.71,10.47,10.75,16.13,1.56,2.92,1.2,6.86,1.71,10.34Z"/><path class="cls-1" d="M104.65,287.08c-.43,3-.87,6-1.31,9l-2.32,1.1q-1.8-3.37-3.61-6.73l1.91-1.34c-2.24-.7-5-.83-6.58-2.25-2-1.79-4.27-4.64-4.27-7s2-6.15,4.18-7.06c3.57-1.55,7.9-1.76,11.91-1.78q55.71-.21,111.41,0a30.4,30.4,0,0,1,12.53,3c2.22,1.07,3.29,4.54,4.89,6.93l-7.25,4.34c-37.63,0-75.26-.13-112.9,0C110.38,285.13,107.52,286.4,104.65,287.08Z"/><path class="cls-3" d="M104.51,398c-2.25-6.61.58-10.94,6.28-14,0,.55.06,1.09.1,1.63,3.88.67,7.77,1.92,11.65,1.93q112.17.18,224.35.09l.87.47-.85-.5q0-1-.06-2a7.06,7.06,0,0,1,.76-.69c9,5,9.66,8.13,3.28,14.46l-2-1.6c-3.54-.66-7.08-1.89-10.62-1.9q-110.4-.17-220.79,0c-3.54,0-7.08,1.23-10.62,1.88Z"/><path class="cls-1" d="M242.2,290.07c4.32-2.8,8.54-5.8,13-8.38,26.13-15.14,34.55-43.71,19.56-69.45-4.55-7.81-11.5-14.21-17.11-21.44-1.64-2.11-2.42-4.89-3.59-7.35,3.45-.56,8-2.8,10.19-1.41,29.49,18.47,45,58.22,22.24,90.32-9,12.66-20.55,20.89-36.73,20.91a52.43,52.43,0,0,1-6.56-.8Z"/><path class="cls-2" d="M383.83,169.64c3.7,1.05,7.83,1.39,11.05,3.28,17.13,10,31.39,23,39.57,41.58,6.26,14.19.22,26-8.25,36.88-14.32,18.34-61.62,25.36-78.37,20.37-1.39-.41-2.52-1.74-5.42-3.83,14.92-2.66,28.15-3.95,40.71-7.57,10.22-2.94,20.81-7.13,29.17-13.49,14.47-11,15.12-28.63,2.72-42.26-7.78-8.56-16.57-16.23-25.25-23.92-2.73-2.42-6.56-3.58-9.89-5.31Z"/><path class="cls-2" d="M268.48,81.74l-14.5-2,10.43-20.55c-10.89-4.15-20.49-8-30.28-11.34-1.59-.54-4.92.82-5.9,2.32-4,6.11-7.46,12.61-11.3,19.29,3.59,2.37,6.22,4.38,9.11,5.94,3.22,1.75,6.67,3.08,10,4.59-3.2,1.31-6.56,2.36-9.54,4.06-1.33.75-1.92,2.81-2.84,4.28l-14.13-3.71-8.81-13.38c4.91-10.45,9.67-21,14.78-31.31,3.88-7.84,10.25-9.2,18.09-6.15,14.61,5.69,29.23,11.38,43.92,16.83,5.66,2.1,6.51,5.59,3.75,10.3C277.15,67.93,272.76,74.8,268.48,81.74Z"/><path class="cls-3" d="M297.59,330.26c7.58.7,15.39.46,22.68,2.3,17.12,4.3,34,9.39,50.92,14.58,7.2,2.22,10.59-.19,12.48-7.08,1.35-4.88,3.7-9.48,5.63-14.28.83.47,1.85.78,1.85,1.09,0,20.57,10.1,30.73,32.82,28.11l-1.62,4.11c-4.94.68-9.86,1.72-14.82,2-9.29.43-14.79,3.8-13.85,14.28.31,3.48-1.16,7.11-2.52,10.75-1.25-15.3-8.53-23.9-23.7-28.09-20.95-5.79-41.33-13.72-61.81-21.14-3.06-1.1-5.32-4.4-7.95-6.69Z"/><path class="cls-3" d="M104.65,287.08c2.87-.68,5.73-1.95,8.59-1.95,37.64-.09,75.27,0,112.9,0-3.58.67-7.15,1.88-10.74,1.92-22.54.22-45.09.17-67.63.22h-9.86l-1.5,3.75L183.24,319c-3.07,8.31-11.11,5.71-16.36,3.4-15.79-7-31.88-13.91-41.18-30.24-1.5-2.63-6.29-3.92-9.82-4.72S108.41,287.13,104.65,287.08Z"/><path class="cls-3" d="M367.13,152.48q-1.35,2.34-2.69,4.68c-7.08-2-14.47-3.33-21.2-6.19-16.91-7.19-33.6-14.9-50.17-22.84-3.69-1.77-6.52-5.33-12-10,5.12-.3,7.51-1.16,9.24-.44q35.9,14.84,71.6,30.16C363.93,148.74,365.4,150.92,367.13,152.48Z"/><path class="cls-3" d="M94.16,354.2,86.1,351l6.23-6.62,54.12-15.55c.71,1,1.42,2,2.12,3-3.57,3-6.69,7.29-10.81,8.75C123.42,345.63,108.72,349.73,94.16,354.2Z"/><path class="cls-2" d="M73.56,161.26C72.85,167.81,70,173.53,62,173.44c-7.28-.09-12.51-4.51-12.56-11.95,0-7.26,3.54-13.19,11.78-13.94C68.06,146.93,73.51,153,73.56,161.26Z"/><path class="cls-3" d="M122.15,178.65c-3.07-.27-6.59.32-9.06-1s-5.61-4.55-5.85-7.17c-.21-2.38,3-7.21,4.8-7.26a160.85,160.85,0,0,1,24.87,1.63c1.12.15,3.05,4.18,2.47,5.43-1.3,2.83-3.47,6.08-6.13,7.24C130,178.92,125.89,178.37,122.15,178.65Z"/><path class="cls-2" d="M104.51,398l2.31-.17h242l2,1.6a57.26,57.26,0,0,1-6.08.64q-115.9,0-231.81-.1C110.17,400,107.34,398.68,104.51,398Z"/><path class="cls-2" d="M110.89,385.65c0-.54-.07-1.08-.1-1.63,37.13-.21,74.26-.5,111.39-.61q54.69-.17,109.39,0c5.35,0,10.69,1,16,1.51a7.06,7.06,0,0,0-.76.69Z"/><path class="cls-3" d="M441.21,172.15c-3.71,3.24-8.29,9.71-10.93,9-4.44-1.2-9.36-6.49-10.64-11-.64-2.25,5.87-8.63,10-9.63C435.62,159.05,439.66,163.43,441.21,172.15Z"/><path class="cls-1" d="M302.2,265.61c-3.55-12-1.72-19.27,5.13-19.11,3.43.08,9.24,4.62,9.65,7.71C318.29,264.32,310,264.62,302.2,265.61Z"/><path class="cls-2" d="M115.28,86.05l7.22,7.07c-2.48,2.35-5.42,6.94-7.33,6.55-3.18-.65-6.94-4-8.08-7.16-.89-2.44,1.82-6.19,2.93-9.36Z"/><path class="cls-3" d="M297.7,330.15l-3.17-1.39.91-1.23,2.15,2.73Z"/><path class="cls-2" d="M199.07,73.6l-1.26,1.89Z"/><path class="cls-2" d="M201,71.38l-2,2.27Z"/><path class="cls-4" d="M190.6,122.66l1.51-2.58,1.19,1.13L192,123.8Z"/><path class="cls-5" d="M306.19,198.53l.81,2.06-2.05-.83C305.34,199.34,305.76,198.93,306.19,198.53Z"/><path class="cls-1" d="M348.85,397.83h-242c3.54-.66,7.08-1.88,10.62-1.89q110.4-.17,220.79,0C341.77,395.94,345.31,397.17,348.85,397.83Z"/><path class="cls-1" d="M110.89,385.65h236q0,1,.06,2l0,0q-112.17,0-224.35-.09C118.66,387.57,114.77,386.32,110.89,385.65Z"/><path class="cls-1" d="M346.91,387.64l.85.5-.87-.47Z"/><path class="cls-3" d="M192,123.8l1.31-2.59c3.5-5.76,7.12-11.44,10.44-17.31s7.55-7,15.29-3.88c-7,12.53-13.17,24.5-20.33,35.86-1.65,2.62-6.63,3.15-10.07,4.65a85.33,85.33,0,0,1,.67-10.14C189.7,128.11,191.06,126,192,123.8Z"/></svg>